<svg xmlns="http://www.w3.org/2000/svg" preserveAspectRatio="none" viewBox="0 0 319.886 168.622" enable-background="new 0 0 319.886 168.622"><rect x="6.601" y="5.743" fill="#fff" width="305.809" height="156.223"/><g fill="#678EA9"><polygon points="312.438,3.785 312.416,4.237 312.479,4.379"/><path d="M312.208 5.926l.027.776c.185-.445.131.153.264-1.057-.029-.424-.093-1.36-.166-1.236.008.305.079.752.056 1.206-.053-.195-.047-.681-.116-.908-.057.731.045.459.02 1.264l-.085-.045zM312.393 6.843l-.09-.131c.032.072.071.448.09.131zM312.412 7.315c-.008.49-.068-.008-.079.042l.119.555-.04-.597zM312.403 9.348l.012.228-.012-.228zM312.418 10.347c.041-.2.017-.452-.003-.771l-.008.031c-.034.28-.12.016-.098-.436-.019-.473.065-.43.01-.839l-.068.562c.011.742.133 1.164.167 1.453zM312.403 9.348l-.005-.266.005.266z"/><polygon points="312.414,8.326 312.396,8.073 312.36,8.134"/><path d="M312.425 12.015c-.116-.117.012-1.193-.078-1.322.005.656-.079 1.183-.144 1.039l.036.728c.044.244.131-.065.186-.445zM312.132 13.441l.02.166-.02-.166zM312.33 17.122l-.116-1.701c.037.158.074.095.087.482.016-.753-.059-.851-.047-1.47.108-.188.008 1.094.104.737-.003-.437-.008-1.094-.1-1.444l.074-.696-.119.236c-.034.283.093.569.011.743-.051.088-.061-.194-.072-.394.023.449-.093 1.228-.077 2.14.013.961.198.733.255 1.367z"/><polygon points="312.2,17.186 312.154,17.3 312.217,17.222"/><path d="M312.354 19.042l-.074-.886.057-.211-.096-.166c-.107.409.034 1.084.053 1.559-.048 1.256-.058-.057-.158.431l.035-.853c-.12.769-.01 1.735.021 2.228.011-.144.044-.18.034-.453l.035.512c.085-.528.107-.981.093-2.161zM312.354 17.46c.008.33 0 .451-.015.481.028-.086.05-.198.015-.481zM312.194 21.411l-.003-.266.003.266zM312.321 20.908l-.012.62.051-.244c-.006-.087-.013-.391-.039-.376zM312.157 44.636c.044-.056.065-.283.057-.762.059.057.047.679.08.97.037-.634.068.009.124-.151.006-.707-.069-1.021-.055-1.776.017.036.043.022.062-.076-.036-.909-.091-2.449-.041-3.337.022-.856-.005-1.491-.031-2.432.03-3.091-.029-6.316.024-9.641l-.112-.47c.056-.162-.001-.792.072-.699-.014.182-.002.354 0 .573.099-.712-.009-1.887.027-2.74-.021.097-.119.236-.137-.02.126.068-.002-1.008.143-1.258l-.09-.921c-.074-.094-.036.853-.092 1.013-.06-.279.025-.805-.053-.766-.036 1.426.118 4.074.16 6.252l-.07-.229c.05 1.117.053 2.92-.061 3.813.065-.21-.036 1.645.114 1.48-.034.281-.028.366-.041.768l.048.107c-.002.574-.075.48-.07 1.137.064-.429.084.045.138.237l-.195 2.294c.021-.053.045-.112.073-.341-.023.453.039.376.061.498.004.438-.08.392-.122.371-.026.803.134 1.162.08 1.762l.066-.209c.017.826-.057 1.524-.034 2.436-.092.442-.079-.751-.118-1.128-.02.186-.024.578-.055.705l.154 1.531c-.105-.466-.099.697-.106 1.009zM312.11 42.095l-.036-.264.008.304.028-.04zM312.157 44.636l-.011.019.011-.019zM312.391 39.385l-.006.118-.002.151.008-.269zM312.088 38.703l.071-.699c-.029.078-.053.141-.071.699zM312.163 33.125l-.054-.192c-.002.352.02.473.054.192z"/><polygon points="312.094,43.097 312.114,43.791 312.132,44.045"/><path d="M312.439 57.17c.08-.613.031-1.513.047-2.268-.041-1.386-.174-.175-.184-1.49l.164.227c-.01-1.315.024-3.178-.119-4.294.02-.097.044-.33.067.011-.006-.876-.232-.454-.179-1.624.102 1.091.097-.357.198-.058l.012.17c-.011-.743-.064-1.725-.058-2.215-.042-.02-.106.409-.111-.249-.009.267-.057.159-.099.137.047.679.018 1.047.073 1.46l-.072.125.051.544c-.013.402-.055-.413-.066.211.032.071.067.58.06 1.068l-.019-.141c.021.373-.005.903.086.722l-.091.443.062-.078c-.023 1.025-.172 1.409-.095 2.732.019-.315.052-.025.063.145.043-.551-.046-.681-.055-1.203.062-.078.136.809.173.174-.073.698.01 1.314-.146 1.614-.009.84.066 1.155.03 2.008l-.022-.023c.102.158-.047.693.059 1.324l.022-.45c.042.021.043.241.051.544l-.036.063c.074.094.086 1.055.107 1.175.013-.402-.048-.898-.067-1.372.046.239.107.167.094.568zM312.169 48.513l.036.271-.036-.271zM312.311 60.974l-.097.356c.051.545.105-.624.183-.093-.045.331.032.864.033 1.084-.043-.243-.142-.104-.162-.005.027.206-.021.669-.023 1.023l.104-.053c.059.058.101.872.056 1.204-.042-.024-.033-.292-.034-.511-.08-.18-.043.548-.116.673.111.826.104 3.467.281 2.716.034-.282-.009-.522-.017-.828-.036.856-.094.005-.126-.067.028-.367-.027-.996.036-.853l.066.582c.033-1.864.021-4.409-.005-6.552l-.004.928c-.048-.108-.051-.546-.074-.886l-.117.455c.009-.268-.009-.523.033-.502-.05-.325-.079-.178-.12.018-.021-.691.025-.804-.051-1.337l-.005 2.289.159.359z"/><polygon points="312.246,58.455 312.305,58.732 312.275,58.309"/><path d="M312.504 58.896l-.062-.144c-.018.537.018.474.062.144zM312.248 65.359l.021.692.022-.45c-.025.012-.037-.158-.043-.242zM312.554 70.215c-.012-.96-.066-1.373-.007-2.458-.077-.532-.144.25-.214.021-.017.538.113.472.138 1.028-.065.209.015.818 0 1.352.027-.066.058-.066.083.057zM312.301 73.523c-.001.438.051.881.019 1.229-.041-.049-.057-.312-.046-.576-.094.167.015.485-.048.961.01-.042.026-.215.047-.082-.022 1.182.077.665.023 2.197.025.222.025.441.088.404-.079.87-.079.43-.148 1.477.037-.041.121-.383.199-.376-.11 1.479.016 1.511-.067 2.455-.004-.105-.024-.233-.014-.487-.109.123.021.792-.002 1.315l-.093-.05c.015.484.076 1.323.008 1.932l-.047-.138c.071 1.237.038 2.683.073 3.739l-.058.565c.071 1.454.032-1.446.172-.38-.172.159.057.751-.013 1.578-.068.391-.035-.836-.113-.404.088.184.025.441.051.883-.083-.096-.012.921-.105.649l.154 1.55c-.047.25-.039.699-.027 1.028.001-.835.124.23.163-.708-.04-1.364-.068-3.65-.024-5.359-.115-.186.001-1.097-.093-1.368l.104-.21c-.024-1.1-.062.258-.104-.009-.015-.484.054-.872.096-.827.006-.789-.031-.09-.093-.492l.125-.515c-.038-2.46-.123-5.718-.052-8.52l-.078.21c.043-1.267-.175-2.123-.007-3.247l-.067-.386c.038.212.118-.218.172.115l-.021-1.07-.037.635c-.067-.444-.026-.935.032-1.083-.078-.946-.136.563-.201.774.145 1.333-.143 1.342-.082 2.623.044.794.072-.081.114-.032zM312.516 71.874l-.021-.194.021.194zM312.354 92.994l.005.374-.005-.374z"/><polygon points="312.471,70.158 312.469,70.16 312.471,70.17"/><polygon points="312.277,69.521 312.275,69.875 312.311,69.813"/><path d="M312.255 96.739l.042.004-.042-.004zM312.229 106.877l.003-.218-.003.218zM312.315 131.204c.025.661.051 1.542.117 2.029l-.041-.048c.021.354.086 1.501.16.762l-.036-.179c-.062-.84.068-.609.096-1.266-.02-.791-.176-1.244-.139-1.942-.005-.309.037-.26.068-.17.012-.702-.108-.976-.124-1.46.313-.191-.085-2.157.114-3.195-.025-.658.002-1.535-.061-2.375.079.446.007-.79.096-.606-.183-.235.081-2.407-.148-2.558l.039-1.358c.025.001.025.223.03.31.047-.521-.098-.8.007-1.229.017-1.05-.062-.179-.124-.799.027-1.096.059-.787.153-1.392-.109-.097-.057-.752-.113-1.284-.006.132-.027.876-.068.39.018-1.272-.072-1.018-.102-2.205.121-.603.004 1.187.099.142.057.752.051 1.322.139 1.726.007-1.012-.013-2.241-.063-3.345.017-.611.058.314.068-.168.053-1.092-.123-1.679-.07-2.553l.062.182c-.083-.534.019-1.931-.027-2.943-.031.128-.053.214-.073.079.156.017-.081-1.41.029-2.409-.1.078-.155-.893-.165-1.509.026-.216.068-.169.095-.167-.06 1.006.107.977.153 1.771-.051-.665.002-1.758-.07-2.335l.078.227c.012-.92-.176-.805-.102-1.766l.057.095c-.008-1.933.095-4.205-.034-5.754-.047-.137-.157.645-.194.686.041.925.124 1.459.165 2.163l-.089-.006c.061.16.098 1.009.146.539.046.574-.079.433-.028 1.095l-.181-.455.046.574-.068.172c.113 1.063-.044 1.487.007 2.59l.017-.614c.053.005.047.357.062.621-.073.301-.063.478-.096 1.045.041.486.135.758.134 1.416-.099-.142-.054 1.094-.137 1.217.099.141.035 1.276.092 1.368.021.354.01.837-.043.832l-.018-.266-.003.352-.021-.062c-.003.313.069.316.021.72-.026-.004-.025-.222-.036-.399-.017.834.149 1.465.06 2.157.047.136.051 1.102.155.892-.037.26-.12.165-.105.869.088.402-.032.786.024 1.318l-.114-.625c-.036.479.082 1.192.066 2.027l-.068.168c.031.312.104.667.029.968l.063-.038c-.032.57-.013 1.36-.081 1.97l.119.711c-.126.956-.013 2.238.095 2.994-.005.351-.026.876-.054.873l-.043-.381c-.004.516-.072 1.146.027 1.434.03.529-.068.388-.085.781.14 1.068-.103 3.152.11 3.479.001-.438.043-1.269.034-2.104.025.222.067.05.072.357.01.837-.069 1.267-.034 2.104l-.135-.101c-.138 1.435.184 2.738-.011 3.861zM312.318 120.496l-.068.605.059-.064c-.01-.187-.01-.379.009-.541zM312.309 121.037l.027.354-.013-.368-.014.014zM312.339 133.618c-.006.134-.017.396-.001.661.016-.174.021-.526.001-.661z"/><polygon points="312.379,134.326 312.4,134.021 312.385,133.976"/><path d="M312.497 152.07l.083.976c-.042.17.008 1.272-.063.915.098.58.003 1.843.144 1.374-.049-2.858.035-6.802-.092-10.106l.057.532c-.111-1.72.124-2.357-.099-3.738l.114.185c.032-.787-.165-1.507-.045-2.33l-.046.083.021-.525-.021.088c-.046-.576-.04-.926-.009-1.494.037-.04.016.266.025.441.037-.261-.04-.706-.039-1.146.031-.348.052.005.067.052-.051-1.322.069-1.925-.101-2.861-.031-.092-.059.344-.073-.139-.054.872.014 1.581.06 2.376l.001-.221c.165.631-.038.479.034 1.495-.067-.268-.067-.708-.104-.887-.126 1.174.097 1.677-.066 2.452l-.004-.088c-.016.174.015.484.03.748l.048-.521c.015.266.088.402.119.493-.073.301.035.397-.001.878-.068.17-.062-.4-.099-.578l.046.574c.005.526-.073.519-.11.78l.109.099c-.084.563-.061 2.978.005 4.127-.01-.398-.072-.14-.062-.622-.016.175.02.79.072.796.046.795.014 1.802-.034 2.544l.052-.214c.088.622-.064 1.574-.014 2.675l.001-.023c.012.354.139.658.112 1.309-.06-.185-.055-.536-.118-.499zM312.618 155.945l-.073-.357c-.016.394.077.884.124.801-.015-.263.017-.613-.024-.662-.011.045-.038.043-.027.218zM312.629 163.32l.064.168c-.009-1.562-.037-3.488.02-4.11.021-.527-.088-.621-.113-1.283l.073-.299c-.047-.357.033-1.448-.087-1.063-.011.043.057.312.035.619l-.041-.05.014.704-.052-.224c-.074.959.156.673.107 1.853l-.104-.009c-.006.791.03 1.188-.033 1.884 0 0 .053.006.031-.127.006-.133.048-.304.078-.212l-.104.647c.071 1.017.132 2.952.048 3.516.062-.478.13.233.124.802-.037.259-.062-.182-.094-.272-.011.264-.037.479-.021.745.058-.345.136-.119.171.499.064-1.356-.128-2.428-.116-3.788zM312.718 163.725l-.024-.236.003.542.021-.306z"/></g><g fill="#678EA9"><polygon points="6.572,168.622 6.594,168.158 6.53,168.012"/><path d="M6.802 166.426l-.027-.797c-.186.456-.131-.158-.264 1.084.028.437.093 1.396.166 1.269-.008-.312-.079-.771-.056-1.237.053.2.047.699.116.933.057-.751-.045-.472-.02-1.297l.085.045zM6.617 165.484l.09.135c-.032-.074-.071-.46-.09-.135zM6.598 165c.007-.503.068.008.079-.044l-.12-.569.041.613zM6.606 162.913l-.011-.233.011.233zM6.592 161.889c-.042.205-.017.464.002.791l.008-.031c.035-.288.12-.017.098.446.019.485-.065.441-.01.861l.068-.576c-.009-.763-.132-1.195-.166-1.491zM6.606 162.913l.005.273-.005-.273z"/><polygon points="6.596,163.962 6.614,164.222 6.65,164.159"/><path d="M6.585 160.177c.116.12-.012 1.224.078 1.356-.005-.674.08-1.214.143-1.066l-.036-.747c-.043-.25-.13.066-.185.457zM6.878 158.713l-.02-.17.02.17zM6.679 154.936l.117 1.745c-.037-.161-.074-.097-.087-.494-.016.772.059.872.046 1.509-.108.192-.008-1.123-.104-.757.003.448.008 1.123.1 1.482l-.074.714.119-.242c.034-.29-.093-.583-.011-.762.051-.09.061.199.072.403-.023-.46.093-1.26.077-2.195-.012-.987-.198-.753-.255-1.403z"/><polygon points="6.81,154.869 6.856,154.753 6.793,154.833"/><path d="M6.655 152.965l.075.908-.057.218.096.17c.107-.419-.034-1.112-.053-1.6.048-1.288.057.059.158-.442l-.036.875c.121-.789.01-1.78-.02-2.286-.01.147-.043.185-.034.464l-.035-.524c-.085.542-.107 1.006-.094 2.217zM6.656 154.589c-.008-.339 0-.464.016-.494-.029.088-.05.203-.016.494zM6.815 150.534l.003.273-.003-.273zM6.689 151.05l.011-.636-.051.25c.006.089.014.401.04.386zM6.852 126.7c-.043.057-.064.29-.056.782-.058-.06-.047-.697-.08-.995-.038.65-.068-.01-.124.154-.006.726.069 1.047.054 1.823-.016-.037-.042-.023-.062.077.037.933.091 2.514.041 3.425-.022.879.005 1.53.031 2.495-.03 3.173.03 6.481-.025 9.895l.113.482c-.057.166 0 .812-.073.717.014-.188.002-.364.001-.588-.1.729.008 1.936-.027 2.812.02-.1.118-.242.136.021-.126-.07.002 1.035-.142 1.291l.09.945c.074.097.036-.875.092-1.04.06.287-.025.826.052.786.037-1.463-.117-4.182-.159-6.416l.07.234c-.05-1.146-.052-2.997.061-3.913-.066.216.036-1.688-.114-1.519.034-.289.029-.376.042-.788l-.048-.11c.001-.589.074-.493.07-1.167-.064.44-.084-.046-.137-.243l.195-2.354c-.021.054-.045.114-.073.35.023-.465-.039-.386-.061-.511-.003-.449.081-.402.122-.38l-.08-1.809-.066.215c-.017-.848.057-1.564.034-2.499.091-.454.079.771.118 1.157.02-.19.024-.593.054-.723l-.153-1.571c.104.478.098-.715.104-1.035zM6.899 129.308l.037.271-.007-.312-.03.041zM6.852 126.7l.011-.02-.011.02zM6.619 132.088l.006-.121.002-.155-.008.276zM6.921 132.789l-.071.718c.03-.081.054-.146.071-.718zM6.847 138.514l.054.196c.002-.361-.02-.485-.054-.196z"/><polygon points="6.917,128.279 6.896,127.567 6.878,127.306"/><path d="M6.57 113.837c-.079.629-.031 1.552-.047 2.326.042 1.423.174.18.184 1.53l-.164-.233c.01 1.351-.024 3.262.12 4.407-.02.1-.045.339-.068-.011.006.898.233.466.179 1.666-.102-1.12-.096.367-.198.06l-.011-.175c.01.762.064 1.771.058 2.273.042.021.106-.419.111.256.008-.273.056-.163.098-.142-.047-.696-.018-1.074-.074-1.498l.072-.128-.05-.558c.013-.414.055.424.066-.217-.032-.073-.067-.595-.06-1.096l.019.144c-.021-.383.005-.927-.086-.74l.091-.455-.062.081c.024-1.053.172-1.446.095-2.804-.019.323-.052.025-.063-.148-.043.565.046.698.055 1.233-.062.081-.136-.829-.173-.178.073-.717-.01-1.349.145-1.656.01-.862-.066-1.185-.03-2.061l.023.024c-.103-.163.046-.712-.059-1.359l-.023.462c-.042-.021-.043-.247-.051-.559l.036-.065c-.074-.096-.086-1.082-.107-1.205-.013.412.048.922.067 1.407-.043-.243-.106-.169-.093-.581zM6.84 122.721l-.036-.278.036.278zM6.7 109.934l.097-.365c-.052-.561-.106.64-.183.096.045-.339-.033-.887-.034-1.112.044.249.142.106.163.005-.028-.211.021-.687.023-1.05l-.103.055c-.059-.06-.102-.896-.057-1.235.042.024.033.3.035.524.08.184.043-.563.115-.691-.11-.848-.103-3.558-.281-2.787-.034.289.009.536.017.849.036-.878.094-.005.126.069-.029.376.028 1.021-.036.876l-.066-.598c-.034 1.913-.021 4.524.005 6.724l.003-.952c.048.11.051.561.074.909l.117-.467c-.009.274.009.537-.033.515.049.334.08.183.12-.018.02.71-.025.825.051 1.372l.004-2.349-.157-.37z"/><polygon points="6.764,112.519 6.705,112.233 6.734,112.668"/><path d="M6.505 112.065l.063.147c.018-.55-.018-.484-.063-.147zM6.762 105.433l-.021-.71-.023.463c.027-.013.037.161.044.247zM6.456 100.449c.012.986.066 1.409.007 2.522.076.547.144-.256.213-.021.017-.552-.113-.483-.138-1.056.066-.214-.015-.84 0-1.387-.026.069-.057.069-.082-.058zM6.709 97.055c.001-.449-.05-.904-.019-1.262.042.05.057.32.045.591.095-.171-.014-.498.048-.986-.01.043-.026.222-.046.085.023-1.213-.077-.683-.023-2.255-.026-.229-.025-.452-.088-.415.08-.892.079-.441.148-1.516-.036.042-.12.393-.198.386.11-1.518-.016-1.551.067-2.519.004.107.024.239.013.499.11-.126-.02-.812.002-1.35l.093.051c-.015-.496-.076-1.357-.008-1.982l.047.142c-.071-1.27-.038-2.752-.073-3.837l.058-.581c-.071-1.493-.033 1.484-.173.39.173-.163-.056-.77.013-1.62.069-.4.036.858.114.415-.088-.188-.026-.452-.051-.906.083.098.011-.945.105-.667l-.154-1.59c.047-.256.039-.717.027-1.055-.001.857-.124-.237-.163.727.041 1.4.068 3.746.024 5.499.115.191-.001 1.126.092 1.405l-.104.215c.024 1.129.063-.265.104.01.015.497-.054.895-.095.848-.006.81.032.093.093.505l-.125.528c.039 2.525.124 5.868.052 8.743l.079-.216c-.043 1.3.175 2.179.006 3.332l.067.396c-.038-.217-.118.225-.171-.117l.021 1.098.038-.651c.066.457.025.96-.033 1.112.079.971.136-.578.202-.794-.146-1.368.143-1.378.082-2.691-.047-.815-.074.082-.116.033zM6.494 98.748l.021.199-.021-.199zM6.656 77.073l-.004-.383c-.021-.131-.006.077.004.383z"/><polygon points="6.539,100.509 6.541,100.506 6.539,100.496"/><polygon points="6.732,101.161 6.734,100.799 6.699,100.862"/><path d="M6.755 73.23l-.042-.004.042.004zM6.78 62.826l-.002.224.002-.224zM6.694 37.861c-.025-.678-.05-1.582-.117-2.083l.042.049c-.02-.364-.086-1.54-.16-.782l.036.184c.061.861-.068.625-.095 1.299.02.812.175 1.276.139 1.993.004.316-.038.267-.069.174-.011.72.108 1.001.124 1.498-.313.197.085 2.215-.114 3.28.025.676-.002 1.575.06 2.437-.079-.458-.007.811-.095.623.183.242-.081 2.47.148 2.625l-.039 1.394c-.026-.001-.026-.229-.031-.318-.047.535.098.82-.007 1.261-.017 1.078.062.184.124.82-.026 1.125-.058.808-.152 1.427.109.1.057.772.113 1.318.005-.135.026-.899.068-.4-.018 1.306.072 1.044.101 2.263-.121.618-.004-1.217-.099-.146-.057-.772-.051-1.357-.139-1.771-.006 1.038.013 2.3.063 3.432-.016.628-.057-.322-.068.173-.053 1.12.123 1.723.069 2.62l-.062-.187c.083.549-.018 1.982.028 3.021.031-.131.052-.22.073-.081-.156-.017.082 1.448-.029 2.473.099-.081.155.916.165 1.547-.027.222-.069.174-.095.172.059-1.032-.107-1.002-.154-1.818.052.682-.001 1.804.07 2.396l-.078-.232c-.011.944.176.826.102 1.812l-.056-.096c.008 1.983-.094 4.315.034 5.905.047.14.157-.662.194-.704-.041-.949-.124-1.497-.165-2.22l.089.007c-.062-.165-.098-1.036-.146-.554-.045-.589.079-.444.028-1.123l.181.466-.045-.589.068-.177c-.113-1.091.044-1.526-.007-2.658l-.017.631c-.052-.005-.047-.367-.062-.637.073-.309.063-.49.095-1.072-.041-.5-.135-.778-.134-1.454.099.145.054-1.122.137-1.249-.098-.144-.035-1.31-.092-1.404-.02-.362-.01-.859.043-.854l.017.273.003-.361.021.063c.002-.322-.069-.325-.021-.738.026.004.026.227.036.409.017-.856-.149-1.502-.06-2.213-.046-.14-.05-1.131-.155-.916.038-.267.121-.169.105-.892-.088-.413.033-.807-.024-1.354l.115.642c.037-.492-.083-1.224-.066-2.081l.068-.172c-.031-.32-.103-.685-.03-.993l-.06.041c.032-.584.012-1.396.081-2.021l-.119-.73c.125-.981.013-2.296-.096-3.073.005-.359.027-.899.054-.896l.043.391c.004-.529.073-1.175-.026-1.471-.03-.544.068-.399.084-.803-.139-1.096.103-3.235-.109-3.57-.001.451-.044 1.303-.035 2.159-.026-.227-.067-.051-.072-.367-.009-.859.069-1.3.034-2.159l.136.104c.137-1.474-.185-2.81.009-3.963zM6.691 48.85l.069-.622-.059.067c.009.192.009.388-.01.555zM6.701 48.295l-.028-.363.013.378.015-.015zM6.671 35.383c.005-.137.016-.407.001-.678-.016.179-.022.54-.001.678z"/><polygon points="6.63,34.657 6.609,34.971 6.625,35.016"/><path d="M6.513 16.447l-.083-1.001c.042-.174-.009-1.306.063-.939-.098-.596-.002-1.891-.144-1.41.048 2.933-.035 6.98.091 10.371l-.056-.546c.112 1.765-.124 2.419.099 3.837l-.115-.189c-.032.808.165 1.546.044 2.391l.046-.085-.021.54.021-.09c.045.59.041.95.008 1.533-.036.041-.016-.273-.025-.453-.037.267.041.725.04 1.176-.032.357-.052-.004-.068-.053.051 1.357-.07 1.975.101 2.937.032.094.058-.353.073.143.054-.895-.013-1.623-.059-2.438v.227c-.166-.647.038-.493-.034-1.535.067.275.066.727.103.91.126-1.205-.096-1.721.066-2.516l.005.09c.016-.178-.016-.496-.03-.767l-.048.535c-.015-.273-.088-.413-.119-.506.073-.309-.036-.408.001-.9.067-.174.062.411.099.593l-.047-.59c-.004-.54.074-.532.111-.8l-.109-.101c.084-.579.061-3.057-.005-4.235.009.409.072.143.062.638.015-.18-.02-.811-.072-.816-.046-.816-.014-1.849.034-2.611l-.052.22c-.087-.639.065-1.616.013-2.746v.025c-.012-.364-.138-.676-.112-1.343.062.182.056.542.119.504zM6.392 12.471l.072.367c.017-.404-.077-.907-.124-.822.016.27-.017.629.025.679.011-.048.037-.044.027-.224zM6.38 4.902l-.064-.172c.009 1.603.038 3.58-.019 4.218-.021.541.088.637.113 1.317l-.073.307c.046.367-.034 1.486.086 1.091.011-.044-.057-.321-.035-.636l.042.051-.015-.722.052.229c.074-.985-.156-.69-.108-1.901l.104.01c.006-.812-.03-1.22.033-1.934 0 0-.052-.006-.031.13-.004.137-.046.313-.077.218l.105-.665c-.072-1.043-.132-3.029-.047-3.607-.063.489-.13-.24-.124-.823.036-.266.062.187.093.279.011-.271.038-.491.022-.765-.058.354-.136.123-.171-.511-.065 1.391.127 2.491.114 3.886zM6.292 4.487l.024.242-.002-.556-.022.314z"/></g><g fill="#678EA9"><polygon points="2.739,164.583 2.829,164.135 2.573,163.993"/><path d="M3.659 162.458l-.107-.771c-.741.441-.526-.152-1.055 1.05.115.421.372 1.35.662 1.228-.031-.303-.313-.747-.223-1.197.213.193.188.676.465.901.229-.726-.18-.456-.078-1.255l.336.044zM2.922 161.547c.127.07.254.145.358.131-.127-.073-.284-.447-.358-.131zM2.846 161.078c.028-.486.273.008.313-.042l-.477-.551.164.593zM2.878 159.06l-.045-.226c-.077.078-.012.142.045.226zM2.821 158.068c-.165.197-.067.448.011.766l.031-.031c.139-.278.479-.016.39.433.076.47-.26.427-.039.833l.274-.558c-.041-.738-.532-1.157-.667-1.443zM2.878 159.06l.021.264c.057-.117.023-.196-.021-.264z"/><polygon points="2.838,160.074 2.908,160.325 3.052,160.265"/><path d="M2.794 156.411c.462.116-.049 1.185.311 1.312-.02-.651.319-1.175.574-1.031l-.144-.723c-.175-.241-.522.065-.741.442zM3.965 154.995l-.079-.164c.019.078.043.146.079.164zM3.17 151.341l.466 1.688c-.149-.156-.295-.095-.347-.479-.062.748.233.845.187 1.461-.432.186-.031-1.087-.417-.732.013.434.032 1.087.397 1.435l-.295.69.475-.234c.136-.28-.372-.564-.042-.737.203-.087.242.193.29.391-.095-.445.37-1.219.308-2.125-.049-.956-.795-.729-1.022-1.358z"/><polygon points="3.691,151.276 3.876,151.164 3.626,151.241"/><path d="M3.073 149.434l.297.879c-.041.095-.14.146-.227.21l.385.165c.428-.405-.137-1.076-.212-1.548.193-1.247.229.057.634-.428-.011.35-.113.362-.143.846.482-.763.04-1.723-.08-2.212-.043.143-.175.18-.137.45l-.14-.509c-.34.525-.431.976-.377 2.147zM3.077 151.004c-.032-.327 0-.447.061-.478-.116.086-.2.198-.061.478zM3.715 147.082c-.027.055-.017.145.012.264.018-.06.023-.138-.012-.264zM3.208 147.581l.045-.615-.203.242c.023.086.054.388.158.373zM3.862 124.021c-.174.055-.26.28-.226.757-.232-.058-.187-.675-.32-.963-.149.63-.272-.01-.497.149-.022.701.279 1.014.218 1.764-.065-.036-.168-.022-.249.075.146.902.363 2.432.164 3.313-.087.85.022 1.48.127 2.415-.122 3.069.118 6.271-.1 9.572l.452.467c-.226.161.001.787-.292.694.056-.182.009-.353.003-.569-.397.706.033 1.873-.109 2.721.081-.097.473-.234.543.021-.503-.068.009 1.001-.568 1.248-.144.849.439.033.359.915.296.094.144-.847.367-1.006.24.277-.102.799.21.761.147-1.416-.47-4.046-.638-6.209l.278.228c-.199-1.109-.209-2.9.244-3.786-.264.209.143-1.634-.459-1.47.138-.279.116-.364.167-.763l-.191-.106c.005-.569.298-.477.279-1.129-.258.426-.335-.045-.55-.235.289-.747.542-1.615.779-2.278-.084.053-.179.111-.291.339.091-.449-.156-.373-.245-.494-.013-.435.322-.389.49-.367.103-.798-.535-1.153-.321-1.75l-.267.208c-.064-.82.229-1.514.139-2.418.365-.439.315.745.472 1.12.077-.185.097-.574.217-.7-.186-.386-.439-1.038-.615-1.521.426.46.403-.695.43-1.003zM4.049 126.543l.146.262c-.023-.087-.047-.169-.03-.302l-.116.04zM3.862 124.021l.043-.02-.043.02zM2.929 129.233l.023-.117.01-.149-.033.266zM4.139 129.911c-.093.177-.189.421-.285.694.121-.077.214-.139.285-.694zM3.839 135.45c.047.171.127.072.214.19.011-.349-.075-.469-.214-.19z"/><polygon points="4.119,125.549 4.037,124.859 3.964,124.606"/><path d="M2.733 111.574c-.317.608-.123 1.502-.188 2.251.166 1.377.695.174.733 1.48l-.654-.226c.039 1.307-.097 3.156.478 4.264-.08.097-.178.328-.271-.01.025.869.932.45.715 1.612-.407-1.084-.387.354-.792.058l-.046-.169c.042.736.257 1.712.23 2.199.169.02.426-.406.446.247.033-.265.224-.157.392-.137-.186-.674-.071-1.039-.293-1.449l.289-.124-.203-.54c.051-.399.22.41.266-.21-.127-.07-.268-.575-.238-1.06l.075.139c-.087-.37.02-.896-.343-.716l.362-.44-.248.078c.097-1.019.69-1.399.381-2.713-.074.313-.208.025-.255-.144-.172.547.186.676.22 1.194-.248.077-.544-.803-.692-.173.294-.693-.038-1.305.581-1.602.039-.835-.263-1.147-.121-1.994l.093.023c-.409-.157.185-.688-.234-1.315l-.092.447c-.167-.021-.173-.239-.203-.541.065.035.065.035.146-.062-.296-.094-.344-1.048-.431-1.167-.051.399.193.892.269 1.362-.174-.236-.422-.163-.372-.562zM3.815 120.17l-.143-.27c.025.111.067.211.143.27zM3.252 107.798l.386-.354c-.205-.542-.422.619-.729.092.179-.328-.13-.857-.136-1.076.175.241.567.104.649.006-.11-.205.085-.665.096-1.016l-.414.052c-.233-.058-.404-.866-.225-1.195.168.024.133.29.14.508.319.178.171-.545.462-.669-.442-.82-.412-3.442-1.124-2.697-.136.28.036.519.066.822.143-.851.375-.006.503.066-.114.364.112.988-.143.848l-.267-.578c-.134 1.851-.083 4.377.021 6.505l.014-.921c.192.107.205.542.298.88l.468-.452c-.034.267.035.52-.133.499.198.323.318.176.48-.018.082.687-.101.799.206 1.327.384-1.14-.32-.963.018-2.272l-.636-.357z"/><polygon points="3.509,110.299 3.272,110.022 3.39,110.443"/><path d="M2.476 109.86l.252.143c.069-.533-.075-.47-.252-.143zM3.5 103.442l-.082-.687-.091.447c.104-.012.149.157.173.24zM2.276 98.62c.048.954.268 1.364.029 2.441.307.528.575-.247.854-.02.068-.534-.451-.469-.552-1.021.265-.207-.058-.812.003-1.343-.109.066-.233.066-.334-.057zM3.29 95.337c.003-.436-.203-.876-.075-1.221.166.048.228.309.183.571.377-.166-.059-.481.193-.954-.041.041-.104.214-.187.081.089-1.174-.31-.66-.094-2.181-.104-.222-.102-.438-.352-.402.317-.863.314-.427.592-1.467-.146.041-.482.381-.794.374.44-1.469-.062-1.501.268-2.438.016.104.098.231.055.483.438-.122-.08-.787.007-1.307l.374.05c-.058-.48-.304-1.314-.031-1.918l.188.137c-.285-1.229-.153-2.663-.294-3.712l.232-.562c-.285-1.444-.131 1.436-.69.377.69-.158-.225-.746.05-1.567.274-.388.143.831.456.401-.353-.182-.102-.438-.203-.876.333.095.045-.914.421-.645l-.618-1.539c.189-.248.157-.693.109-1.021-.004.83-.496-.229-.65.704.16 1.354.273 3.625.098 5.321.458.185-.005 1.09.369 1.359l-.418.209c.097 1.092.251-.256.418.009.06.48-.215.865-.381.82-.024.783.125.09.372.489l-.503.511c.155 2.443.494 5.677.207 8.459l.314-.209c-.173 1.259.699 2.108.025 3.225l.27.383c-.153-.211-.472.217-.686-.114.107.344-.013.708.085 1.062l.15-.63c.267.441.102.929-.131 1.075.315.94.543-.559.807-.768-.581-1.323.57-1.333.327-2.604-.187-.786-.296.083-.463.035zM2.429 96.975l.084.192-.084-.192zM3.077 76.002l-.019-.371c-.079-.126-.023.075.019.371z"/><polygon points="2.61,98.678 2.616,98.675 2.61,98.666"/><polygon points="3.382,99.31 3.392,98.959 3.248,99.021"/><path d="M3.472 72.284l-.165-.004c.051.033.104.047.165.004zM3.573 62.217l-.009.217c.025-.067.021-.144.009-.217zM3.229 38.062c-.102-.656-.201-1.531-.469-2.015l.166.047c-.081-.352-.346-1.49-.642-.756l.145.178c.245.833-.274.604-.381 1.256.078.786.702 1.235.554 1.929.018.306-.149.258-.273.169-.046.697.433.969.495 1.449-1.253.19.341 2.143-.456 3.173.102.654-.008 1.524.239 2.358-.313-.443-.026.785-.38.603.729.234-.324 2.39.592 2.54-.257 1.127.061.047-.154 1.349-.103-.001-.103-.221-.122-.307-.189.518.391.793-.028 1.22-.067 1.042.249.178.495.793-.107 1.088-.232.782-.61 1.381.438.096.226.747.452 1.275.021-.131.107-.87.273-.387-.07 1.263.288 1.01.405 2.189-.483.598-.015-1.178-.395-.141-.225-.747-.203-1.313-.555-1.713-.026 1.004.051 2.225.254 3.32-.065.607-.228-.312-.271.167-.213 1.084.492 1.667.279 2.535l-.249-.181c.331.531-.073 1.918.11 2.923.125-.126.209-.212.292-.079-.625-.014.326 1.403-.115 2.395.396-.078.62.886.66 1.497-.108.215-.274.169-.379.167.236-.999-.431-.969-.615-1.759.206.66-.008 1.745.281 2.318l-.311-.225c-.045.914.705.799.407 1.753l-.228-.094c.031 1.919-.376 4.176.137 5.713.188.135.629-.64.776-.681-.163-.918-.495-1.448-.658-2.148l.357.007c-.245-.16-.391-1.002-.583-.536-.183-.57.314-.43.11-1.087.374.051.414.444.726.452l-.184-.57.272-.171c-.453-1.055.176-1.477-.028-2.571l-.066.61c-.208-.005-.187-.355-.247-.617.293-.299.253-.474.381-1.038-.165-.482-.539-.752-.536-1.406.396.141.215-1.085.548-1.208-.395-.139-.141-1.267-.368-1.358-.081-.351-.039-.831.172-.826l.068.264.013-.35.086.062c.01-.312-.277-.314-.082-.715.104.004.102.22.144.396.067-.828-.597-1.454-.239-2.141-.186-.135-.202-1.095-.622-.886.149-.258.481-.164.422-.863-.353-.4.129-.781-.098-1.31.371.707.104.002.457.621.146-.477-.328-1.185-.264-2.013l.273-.167c-.124-.309-.413-.663-.12-.961l-.251.038c.128-.566.049-1.351.323-1.955l-.476-.707c.504-.949.051-2.222-.381-2.973.021-.348.108-.87.214-.867l.173.378c.018-.512.289-1.137-.107-1.423-.121-.526.273-.386.337-.776-.557-1.061.412-3.13-.439-3.454-.004.436-.174 1.26-.138 2.089-.103-.22-.27-.05-.288-.355-.038-.831.276-1.258.135-2.089l.541.1c.554-1.427-.732-2.72.044-3.835zM3.217 48.694l.274-.602-.233.064c.038.187.038.377-.041.538zM3.258 48.157c-.025-.124-.065-.244-.11-.351-.005.131.005.258.051.366l.059-.015zM3.138 35.664c.021-.133.065-.394.004-.656-.065.173-.087.522-.004.656z"/><polygon points="2.975,34.962 2.89,35.265 2.952,35.309"/><path d="M2.503 17.342l-.33-.969c.167-.168-.034-1.263.253-.909-.392-.576-.011-1.829-.576-1.364.195 2.837-.138 6.753.366 10.035l-.226-.528c.448 1.708-.494 2.34.396 3.712l-.456-.183c-.128.782.66 1.496.178 2.314l.187-.083-.086.522.084-.087c.184.571.162.919.035 1.483-.146.04-.062-.264-.102-.438-.148.259.162.701.159 1.138-.127.345-.208-.005-.271-.051.202 1.313-.28 1.911.402 2.841.125.091.232-.341.291.138.215-.866-.054-1.569-.238-2.359l-.002.22c-.662-.626.15-.477-.136-1.485.269.266.267.704.412.88.506-1.166-.387-1.665.265-2.435l.019.087c.062-.173-.061-.48-.121-.742-.084.085-.127.344-.191.518-.061-.264-.352-.399-.476-.49.292-.298-.144-.395.003-.871.271-.168.249.397.394.574l-.186-.571c-.017-.522.296-.515.443-.774-.207-.44-.146.259-.437-.098.336-.56.243-2.957-.02-4.098.038.396.29.138.246.618.062-.174-.08-.785-.288-.79-.184-.79-.055-1.79.136-2.527l-.209.212c-.35-.618.26-1.563.055-2.657l-.004.023c-.045-.352-.552-.654-.447-1.299.249.182.228.53.478.493zM2.021 13.495l.291.355c.064-.391-.308-.878-.496-.795.062.261-.066.609.101.657.041-.046.145-.043.104-.217zM1.975 6.171c-.067-.143-.177-.106-.257-.167.036 1.551.151 3.464-.075 4.082-.085.524.351.617.452 1.274l-.293.297c.186.355-.134 1.438.348 1.056.042-.043-.227-.31-.142-.615l.166.049-.057-.699.208.222c.296-.953-.624-.668-.431-1.84l.418.01c.024-.786-.12-1.181.133-1.871 0 0-.208-.006-.124.126-.023.133-.191.302-.315.211l.419-.643c-.286-1.009-.526-2.931-.19-3.49-.252.473-.52-.233-.496-.797.147-.257.248.181.373.27.045-.262.15-.475.088-.74-.23.343-.543.119-.684-.495-.258 1.346.507 2.411.459 3.76zM1.622 5.771c.014.139.05.2.096.234l-.01-.538-.086.304z"/></g><g fill="#678EA9"><polygon points="316.271,0 316.182,0.466 316.438,0.614"/><path d="M315.352 2.21l.107.802c.74-.459.525.158 1.055-1.091-.115-.438-.372-1.404-.662-1.276.031.315.313.777.223 1.245-.213-.201-.188-.703-.465-.938-.229.755.18.474.077 1.305l-.335-.047zM316.088 3.157c-.127-.073-.254-.15-.357-.136.126.075.284.463.357.136zM316.165 3.645c-.027.505-.272-.009-.313.043l.477.573-.164-.616zM316.133 5.743l.045.235c.076-.082.011-.147-.045-.235zM316.189 6.774c.165-.206.067-.466-.012-.796l-.03.032c-.139.289-.479.017-.39-.45-.076-.488.26-.444.039-.867l-.275.58c.042.768.534 1.203.668 1.501zM316.133 5.743l-.021-.274c-.057.121-.024.203.021.274z"/><polygon points="316.173,4.688 316.103,4.427 315.959,4.49"/><path d="M316.217 8.497c-.463-.121.05-1.231-.311-1.365.02.678-.319 1.222-.574 1.073l.144.751c.174.252.522-.067.741-.459zM315.045 9.969l.079.171c-.019-.082-.042-.152-.079-.171zM315.841 13.769l-.466-1.756c.148.163.294.098.347.498.062-.777-.233-.878-.187-1.518.432-.193.031 1.13.417.761-.013-.451-.032-1.13-.397-1.492l.295-.718-.475.243c-.137.292.371.587.042.767-.203.09-.241-.201-.29-.407.096.463-.369 1.268-.308 2.209.049.995.794.759 1.022 1.413z"/><polygon points="315.319,13.836 315.135,13.953 315.385,13.873"/><path d="M315.938 15.752l-.297-.915c.041-.098.14-.152.227-.218l-.385-.171c-.428.422.137 1.119.212 1.609-.193 1.297-.229-.059-.634.445.011-.363.113-.377.143-.88-.481.793-.04 1.791.08 2.3.043-.148.176-.187.137-.468l.141.528c.338-.544.43-1.012.376-2.23zM315.934 14.119c.032.341 0 .466-.061.497.115-.09.199-.205.061-.497zM315.295 18.197c.027-.057.018-.15-.012-.274-.017.061-.022.143.012.274zM315.803 17.678l-.045.64.202-.252c-.022-.089-.054-.403-.157-.388zM315.148 42.176c.174-.057.26-.292.227-.787.231.059.187.701.319 1.001.149-.655.272.01.497-.156.022-.729-.279-1.053-.218-1.833.065.037.168.023.249-.078-.146-.938-.363-2.529-.164-3.445.087-.884-.022-1.54-.127-2.511.121-3.191-.117-6.521.1-9.954l-.452-.485c.227-.167-.001-.818.293-.721-.057.188-.01.366-.004.591.397-.734-.033-1.948.109-2.829-.081.101-.474.244-.543-.021.503.071-.009-1.041.568-1.298.144-.882-.439-.035-.359-.952-.296-.097-.144.88-.367 1.046-.24-.288.102-.831-.21-.791-.147 1.472.47 4.207.638 6.455l-.278-.236c.199 1.153.209 3.015-.244 3.937.264-.217-.143 1.698.459 1.528-.138.291-.115.378-.166.793l.19.111c-.005.592-.298.496-.279 1.173.258-.443.336.047.55.245-.289.776-.542 1.68-.779 2.369.084-.054.179-.116.29-.352-.091.467.156.388.245.513.013.453-.322.405-.49.383-.103.83.535 1.199.321 1.819l.267-.216c.064.853-.229 1.574-.139 2.515-.365.457-.315-.775-.473-1.165-.076.192-.097.597-.217.728.187.401.439 1.08.615 1.581-.424-.48-.4.72-.428 1.042zM314.961 39.553l-.146-.273c.022.091.047.177.03.314l.116-.041zM315.148 42.176l-.043.02c.025.094.036.066.043-.02zM316.082 36.755l-.023.122-.01.156.033-.278zM314.871 36.05c.094-.183.189-.437.285-.722-.12.081-.214.147-.285.722zM315.171 30.291c-.047-.177-.127-.075-.214-.198-.011.364.076.489.214.198z"/><polygon points="314.893,40.587 314.975,41.304 315.046,41.566"/><path d="M316.277 55.117c.317-.633.123-1.562.188-2.34-.166-1.432-.695-.181-.733-1.539l.654.234c-.038-1.358.097-3.281-.478-4.434.08-.1.178-.341.271.011-.025-.905-.932-.469-.715-1.677.406 1.127.387-.369.792-.06l.046.176c-.042-.767-.258-1.781-.23-2.287-.169-.021-.426.422-.446-.257-.033.275-.224.164-.392.142.186.701.071 1.081.293 1.507l-.289.129.203.562c-.051.416-.22-.426-.266.218.127.074.268.598.238 1.102l-.076-.145c.088.385-.02.933.344.745l-.362.458.248-.081c-.098 1.059-.69 1.455-.381 2.82.074-.326.208-.026.255.149.172-.569-.187-.703-.22-1.242.247-.081.544.835.692.179-.295.721.037 1.357-.581 1.666-.039.868.263 1.192.12 2.073l-.093-.024c.409.164-.185.716.234 1.367l.092-.464c.167.022.173.249.203.562-.065-.037-.065-.037-.146.065.296.097.344 1.089.432 1.213.051-.415-.193-.927-.27-1.417.176.25.424.175.373.589zM315.195 46.18l.143.28c-.024-.115-.067-.219-.143-.28zM315.759 59.044l-.386.367c.205.563.422-.644.729-.096-.179.341.13.893.136 1.119-.175-.25-.567-.107-.648-.005.11.212-.085.691-.096 1.056l.414-.055c.233.06.404.9.225 1.243-.168-.025-.133-.301-.14-.527-.319-.185-.171.566-.462.696.442.852.412 3.579 1.123 2.804.137-.291-.035-.539-.066-.854-.143.884-.375.006-.503-.069.114-.378-.111-1.028.144-.881l.267.601c.134-1.924.083-4.552-.021-6.764l-.015.958c-.192-.111-.205-.563-.298-.914l-.468.469c.034-.277-.035-.541.133-.518-.198-.336-.318-.184-.479.018-.082-.714.101-.831-.206-1.38-.384 1.186.319 1.001-.018 2.363l.635.369z"/><polygon points="315.501,56.443 315.738,56.73 315.621,56.293"/><path d="M316.535 56.899l-.252-.148c-.069.554.074.488.252.148zM315.511 63.572l.082.714.091-.465c-.105.013-.149-.162-.173-.249zM316.734 68.586c-.048-.992-.268-1.418-.029-2.538-.307-.55-.575.257-.854.021-.068.556.451.487.552 1.062-.265.215.058.844-.003 1.396.11-.069.234-.069.334.059zM315.722 72c-.004.453.202.91.075 1.27-.167-.05-.229-.321-.184-.594-.377.172.059.501-.193.992.041-.043.105-.223.188-.085-.089 1.221.31.686.094 2.268.104.23.102.455.352.417-.316.898-.314.444-.592 1.525.146-.042.482-.396.795-.389-.44 1.528.062 1.561-.268 2.535-.016-.109-.098-.241-.055-.502-.438.126.08.818-.007 1.358l-.374-.051c.059.5.305 1.366.031 1.995l-.188-.143c.285 1.277.153 2.769.294 3.86l-.231.585c.284 1.501.131-1.494.689-.393-.689.164.225.774-.05 1.629-.274.403-.144-.863-.456-.417.353.189.102.455.203.911-.333-.099-.045.95-.421.671l.618 1.601c-.189.257-.157.721-.109 1.062.004-.862.496.237.65-.732-.16-1.408-.273-3.768-.098-5.532-.459-.192.005-1.133-.369-1.413l.418-.217c-.098-1.135-.251.267-.418-.01-.06-.499.215-.899.381-.853.024-.814-.125-.093-.372-.508l.503-.531c-.154-2.541-.494-5.903-.207-8.796l-.314.217c.173-1.308-.699-2.191-.025-3.352l-.27-.398c.153.219.472-.226.686.118-.107-.357.013-.736-.085-1.105l-.149.655c-.268-.459-.103-.965.131-1.118-.315-.978-.543.581-.808.799.581 1.375-.569 1.385-.326 2.708.183.817.293-.086.461-.037zM316.582 70.298l-.084-.201.084.201zM315.934 92.104l.019.386c.078.131.023-.078-.019-.386z"/><polygon points="316.4,68.526 316.395,68.529 316.4,68.539"/><polygon points="315.629,67.87 315.619,68.234 315.763,68.171"/><path d="M315.539 95.97l.165.005c-.052-.036-.104-.049-.165-.005zM315.438 106.437l.008-.225c-.024.069-.02.15-.008.225zM315.781 131.554c.102.683.201 1.592.469 2.095l-.166-.049c.081.366.346 1.549.642.786l-.145-.185c-.245-.867.274-.629.381-1.307-.077-.816-.701-1.284-.554-2.006-.018-.317.149-.268.273-.175.046-.725-.433-1.008-.495-1.507 1.253-.198-.341-2.229.456-3.3-.102-.68.008-1.584-.239-2.451.313.46.026-.816.38-.627-.729-.243.324-2.484-.592-2.641.257-1.173-.062-.049.154-1.402.103.001.103.229.121.319.189-.538-.391-.825.028-1.269.067-1.084-.249-.186-.495-.825.107-1.132.232-.813.61-1.437-.438-.1-.226-.776-.452-1.326-.021.137-.107.904-.273.402.07-1.313-.287-1.051-.405-2.276.482-.622.015 1.225.396.146.225.776.202 1.365.555 1.78.025-1.043-.052-2.313-.254-3.452.064-.632.228.324.271-.174.214-1.127-.491-1.733-.278-2.636l.249.188c-.331-.553.073-1.994-.11-3.039-.125.132-.209.221-.292.081.626.018-.325-1.456.116-2.487-.396.081-.62-.922-.661-1.558.108-.223.274-.175.38-.173-.236 1.039.431 1.008.615 1.829-.206-.686.008-1.814-.281-2.41l.312.233c.046-.95-.704-.83-.407-1.822l.229.097c-.031-1.995.376-4.342-.137-5.94-.188-.141-.629.666-.776.709.163.954.495 1.506.658 2.233l-.357-.007c.245.165.391 1.041.583.557.183.593-.314.446-.11 1.13-.374-.054-.414-.462-.726-.47l.184.593-.272.178c.453 1.098-.176 1.536.028 2.674l.066-.635c.208.006.187.369.247.642-.293.311-.253.493-.381 1.078.164.503.538.783.535 1.463-.396-.146-.215 1.129-.548 1.257.395.145.141 1.317.367 1.412.081.365.039.864-.172.858l-.067-.274-.014.364-.087-.064c-.01.324.277.327.082.743-.104-.004-.102-.229-.144-.412-.067.861.597 1.512.239 2.227.186.141.202 1.139.622.921-.149.269-.481.17-.423.897.353.416-.13.812.098 1.361-.371-.734-.104-.003-.457-.646-.146.495.328 1.231.264 2.093l-.273.174c.124.321.413.689.12.999l.251-.039c-.129.589-.049 1.404-.323 2.033l.476.734c-.504.987-.051 2.311.381 3.092-.021.361-.108.904-.214.9l-.173-.393c-.018.532-.289 1.182.106 1.479.122.547-.272.401-.337.808.557 1.103-.411 3.255.439 3.591.004-.453.174-1.311.138-2.172.103.229.27.052.288.369.038.864-.276 1.308-.135 2.172l-.541-.104c-.553 1.488.734 2.833-.043 3.993zM315.794 120.498l-.274.626.233-.067c-.038-.194-.038-.391.041-.559zM315.753 121.057c.025.129.065.253.11.365.005-.137-.005-.269-.051-.381l-.059.016zM315.873 134.047c-.021.138-.064.409-.004.682.065-.18.086-.543.004-.682z"/><polygon points="316.036,134.776 316.121,134.461 316.059,134.415"/><path d="M316.508 153.097l.329 1.008c-.167.175.035 1.313-.253.944.392.6.011 1.902.576 1.419-.194-2.951.138-7.022-.366-10.435l.226.55c-.448-1.775.493-2.434-.396-3.86l.458.19c.128-.812-.66-1.556-.178-2.405l-.187.086.086-.543-.084.091c-.184-.594-.162-.956-.035-1.542.146-.042.062.274.102.455.148-.269-.162-.729-.159-1.183.127-.359.208.004.271.053-.202-1.365.28-1.987-.402-2.954-.125-.095-.232.354-.291-.144-.215.9.055 1.632.238 2.453l.002-.229c.662.652-.15.496.137 1.545-.27-.277-.268-.731-.412-.916-.506 1.213.387 1.731-.265 2.532l-.019-.091c-.062.18.061.499.121.772.084-.089.127-.358.191-.539.061.274.352.415.476.51-.293.31.144.41-.004.906-.271.175-.248-.414-.394-.598l.186.594c.018.543-.296.535-.442.805.207.458.146-.27.437.103-.336.582-.242 3.074.021 4.261-.038-.411-.29-.144-.246-.643-.062.182.08.816.288.821.184.821.054 1.86-.138 2.627l.21-.221c.35.643-.26 1.625-.055 2.763l.004-.025c.045.366.553.681.447 1.352-.252-.188-.23-.55-.48-.512zM316.99 157.098l-.291-.369c-.064.407.309.913.496.827-.062-.271.066-.634-.101-.684-.041.048-.145.044-.104.226zM317.036 164.712c.066.148.176.111.257.174-.036-1.612-.151-3.602.075-4.244.085-.544-.351-.642-.452-1.325l.293-.309c-.186-.369.134-1.494-.348-1.098-.042.044.227.322.142.64l-.166-.051.058.727-.208-.231c-.296.991.624.694.431 1.913l-.418-.01c-.023.817.12 1.228-.133 1.945 0 0 .208.006.124-.131.022-.138.189-.314.314-.22l-.42.67c.286 1.049.526 3.047.19 3.629.252-.493.52.241.496.827-.147.268-.248-.188-.373-.28-.045.272-.149.494-.088.77.23-.356.543-.124.685.515.258-1.4-.508-2.507-.459-3.911zM317.389 165.129c-.014-.145-.051-.208-.096-.243l.01.56.086-.317z"/></g><g fill="#678EA9"><polygon points="0,6.128 0.859,6.15 1.13,6.086"/><path d="M4.07 6.358l1.477-.027c-.847-.185.291-.131-2.01-.263-.807.028-2.585.093-2.35.166.58-.008 1.43-.079 2.292-.056-.37.052-1.295.047-1.727.116 1.391.057.873-.045 2.402-.02l-.084.084zM5.814 6.174c-.134.032-.276.063-.25.09.138-.032.853-.072.25-.09zM6.712 6.155c.931.007-.016.068.08.079l1.056-.12-1.136.041zM10.577 6.163l.432-.011c-.15-.02-.271-.003-.432.011zM12.476 6.149c-.379-.042-.859-.017-1.467.002l.06.008c.533.035.031.12-.828.098-.899.019-.817-.065-1.596-.01l1.068.068c1.412-.01 2.214-.132 2.763-.166zM10.577 6.163l-.505.005c.223.015.373.006.505-.005z"/><polygon points="8.634,6.153 8.152,6.17 8.27,6.207"/><path d="M15.648 6.142c-.223.116-2.268-.012-2.514.078 1.249-.005 2.25.08 1.976.143l1.384-.036c.464-.044-.123-.131-.846-.185zM18.359 6.435l.315-.02-.315.02zM25.358 6.236l-3.234.117c.299-.037.181-.074.917-.087-1.432-.016-1.618.059-2.796.046-.357-.108 2.081-.008 1.401-.104-.83.003-2.081.008-2.747.1l-1.323-.074.448.119c.537.034 1.082-.093 1.413-.011.167.051-.369.061-.749.072.853-.023 2.334.093 4.069.077 1.83-.012 1.397-.199 2.601-.255z"/><polygon points="25.481,6.366 25.697,6.413 25.548,6.35"/><path d="M29.011 6.211l-1.684.075c-.182-.011-.281-.035-.403-.057l-.315.096c.777.107 2.061-.034 2.963-.053 2.388.048-.108.057.82.158l-1.621-.036c1.462.121 3.299.01 4.236-.02-.273-.01-.343-.043-.861-.034l.973-.035c-1.005-.084-1.866-.107-4.108-.094zM26.002 6.212c.627-.008.858 0 .915.016-.164-.029-.377-.05-.915-.016zM33.513 6.372l-.505.003.505-.003zM32.558 6.246l1.179.011-.464-.051c-.165.005-.744.014-.715.04zM77.675 6.409c-.106-.043-.538-.064-1.449-.056.108-.058 1.29-.047 1.843-.08-1.206-.038.018-.068-.287-.124-1.343-.006-1.939.069-3.377.054.069-.016.043-.042-.144-.062-1.728.037-4.656.091-6.345.041-1.627-.022-2.835.005-4.624.031l-18.332-.025-.894.113c-.308-.057-1.506 0-1.328-.073.346.014.674.002 1.089.001-1.353-.1-3.587.008-5.21-.027.185.02.449.118-.039.136.13-.126-1.917.002-2.391-.142-1.625-.036-.064.11-1.753.09-.179.074 1.622.036 1.927.092-.531.06-1.531-.025-1.457.052 2.711.037 7.748-.117 11.889-.159l-.433.069c2.125-.05 5.553-.052 7.25.061-.4-.066 3.128.036 2.814-.114.535.034.697.029 1.46.042l.205-.048c1.09.001.913.074 2.161.07-.815-.064.087-.084.451-.137l4.362.195c-.1-.021-.213-.045-.648-.073.861.023.715-.039.946-.061.833-.003.745.081.705.122 1.527.026 2.208-.133 3.35-.08l-.397-.066c1.57-.017 2.898.057 4.631.034.841.091-1.427.079-2.146.118.354.02 1.1.024 1.341.054l2.911-.153c-.885.104 1.327.098 1.919.105zM72.844 6.456l-.502.037.579-.007-.077-.03zM77.675 6.409l.035.011-.035-.011zM67.691 6.175l.224.006.287.002-.511-.008zM66.393 6.478l-1.33-.071c.149.03.27.053 1.33.071zM55.786 6.403l-.364.054c.669.002.899-.019.364-.054z"/><polygon points="74.748,6.473 76.068,6.453 76.552,6.435"/><path d="M101.508 6.126c-1.166-.079-2.875-.031-4.311-.047-2.637.042-.333.174-2.834.184l.431-.163c-2.501.01-6.043-.024-8.165.12-.185-.02-.628-.045.02-.068-1.666.006-.863.233-3.087.179 2.076-.102-.68-.096-.11-.198l.324-.011-4.211.058c-.04.04.775.104-.476.11.507.008.302.056.261.098 1.291-.047 1.991-.018 2.776-.074l.237.072 1.035-.05c.766.013-.785.055.401.066.136-.032 1.102-.067 2.03-.06l-.267.019c.709-.021 1.718.005 1.372-.086l.842.091-.148-.062c1.95.024 2.679.172 5.194.095-.6-.019-.048-.052.274-.063-1.047-.043-1.294.046-2.286.055-.149-.062 1.538-.136.33-.173 1.328.073 2.5-.01 3.068.145 1.599.01 2.196-.066 3.818-.03l-.045.023c.301-.103 1.319.046 2.518-.059l-.855-.023c.041-.042.458-.043 1.036-.051l.12.036c.179-.074 2.006-.086 2.234-.107-.764-.013-1.708.048-2.608.067.456-.043.318-.105 1.082-.093zM85.047 6.397l.515-.036c-.209.007-.402.017-.515.036zM108.74 6.256l.677.097c1.038-.052-1.186-.106-.177-.183.628.045 1.643-.033 2.061-.034-.461.044-.198.142-.01.163.392-.028 1.273.021 1.945.023l-.1-.103c.11-.059 1.658-.102 2.289-.057-.046.042-.556.033-.972.035-.341.08 1.043.043 1.281.115 1.569-.11 6.591-.103 5.164-.281-.536-.034-.993.009-1.574.017 1.627.036.01.094-.128.126-.697-.029-1.893.028-1.622-.036l1.106-.066c-3.543-.034-8.382-.021-12.457.005l1.764.003c-.205.048-1.038.051-1.684.074l.864.117c-.509-.009-.995.009-.954-.033-.619.049-.338.08.034.12-1.315.02-1.53-.025-2.542.051l4.352.004.683-.157z"/><polygon points="103.95,6.321 104.479,6.261 103.673,6.291"/><path d="M104.79 6.062l-.273.063c1.02.018.899-.018.273-.063zM117.079 6.318l1.315-.021-.856-.023c.023.027-.299.038-.459.044zM126.312 6.013c-1.827.012-2.611.066-4.674.007-1.012.076.474.144.038.213 1.023.017.897-.113 1.956-.138.396.066 1.556-.015 2.57 0-.125-.026-.125-.057.11-.082zM132.602 6.266c.833.001 1.676-.05 2.337-.019-.092.042-.592.057-1.094.045.318.095.922-.014 1.827.048-.08-.01-.41-.026-.156-.046 2.248.022 1.264-.078 4.177-.024.423-.026.838-.025.769-.088 1.653.08.818.079 2.809.148-.077-.036-.728-.12-.715-.198 2.813.11 2.873-.016 4.667.067-.2.004-.443.024-.925.013.233.11 1.506-.02 2.501.002l-.095.093c.92-.015 2.516-.076 3.674-.008l-.263.047c2.353-.071 5.1-.038 7.109-.073l1.076.058c2.766-.071-2.75-.033-.723-.173.303.173 1.428-.056 3.001.013.742.069-1.59.036-.769.114.349-.088.838-.026 1.678-.051-.181.083 1.751.011 1.236.105l2.946-.154c.475.047 1.328.039 1.955.027-1.588-.001.438-.124-1.347-.163-2.594.041-6.94.068-10.189.024-.354.115-2.086-.001-2.602.092l-.399-.104c-2.091.024.49.063-.018.104-.92.015-1.657-.054-1.571-.095-1.5-.006-.171.032-.936.093l-.979-.126c-4.678.039-10.872.124-16.199.052l.4.079c-2.409-.043-4.037.175-6.174.006l-.733.067c.403-.038-.416-.118.218-.171l-2.035.021 1.207.038c-.846.066-1.779.025-2.06-.033-1.8.079 1.07.136 1.471.202 2.534-.146 2.552.143 4.987.082 1.508-.045-.156-.072-.063-.114zM129.465 6.05l-.369.021.369-.021zM169.625 6.212l.711-.004c.24-.02-.145-.006-.711.004zM126.202 6.096l.006.001.018-.001h-.024z"/><polygon points="124.993,6.289 125.664,6.291 125.548,6.255"/><path d="M176.745 6.312l.008-.042-.008.042zM196.021 6.336l-.414-.002.414.002zM242.278 6.25c1.257-.025 2.932-.05 3.858-.117l-.091.042c.675-.02 2.854-.086 1.449-.16l-.341.036c-1.597.061-1.159-.068-2.407-.095-1.504.02-2.365.175-3.692.139-.586.004-.495-.038-.323-.069-1.334-.011-1.855.108-2.775.124-.364-.313-4.104.085-6.076-.114-1.252.025-2.918-.002-4.516.06.849-.079-1.502-.007-1.153-.095-.448.183-4.576-.081-4.863.148l-2.584-.039c.003-.026.424-.026.589-.031-.991-.047-1.52.098-2.337-.007-1.996-.017-.341.062-1.52.124-2.083-.026-1.496-.058-2.645-.152-.185.109-1.43.057-2.442.113.251.005 1.666.026.74.068-2.419-.018-1.935.072-4.192.101-1.146-.121 2.255-.004.27-.099 1.43-.057 2.515-.051 3.28-.139-1.923-.006-4.262.013-6.358.063-1.164-.016.598-.057-.32-.068-2.076-.053-3.193.123-4.854.069l.347-.062c-1.018.083-3.673-.018-5.597.028.243.031.407.052.15.073.031-.156-2.683.082-4.582-.029.149.099-1.696.155-2.867.165-.411-.027-.323-.069-.318-.095 1.912.059 1.855-.107 3.367-.154-1.263.052-3.342-.001-4.438.07l.43-.078c-1.749-.011-1.529.176-3.356.102l.179-.057c-3.675.008-7.996-.094-10.94.034-.259.047 1.226.157 1.305.194 1.758-.041 2.773-.124 4.113-.165l-.013.089c.305-.062 1.918-.098 1.025-.146 1.092-.045.822.079 2.081.028-.098.094-.852.104-.864.181l1.092-.045.327.068c2.021-.113 2.827.044 4.924-.007l-1.169-.017c.011-.052.68-.047 1.181-.062.572.073.908.063 1.987.095.925-.041 1.441-.135 2.693-.134-.27.099 2.079.054 2.314.137.267-.098 2.427-.035 2.601-.092.672-.02 1.592-.01 1.582.043l-.506.017.67.003-.118.021c.597.002.602-.069 1.368-.021-.008.026-.421.026-.759.036 1.587.017 2.784-.149 4.101-.06.259-.046 2.097-.05 1.696-.155.495.038.313.121 1.652.105.766-.088 1.495.033 2.507-.024l-1.188.115c.912.037 2.269-.083 3.854-.066l.32.068c.592-.031 1.269-.103 1.84-.03l-.071-.063c1.083.032 2.585.012 3.743.081l1.354-.119c1.816.125 4.255.013 5.692-.096l1.082.019c.333.009.581.021.578.035l-.725.043c.981.004 2.178.073 2.726-.026 1.008-.03.738.068 1.487.084 2.03-.139 5.993.103 6.614-.109l-4.001-.035c.421-.026.096-.067.68-.072 1.592-.009 2.409.069 4.001.034l-.192.136c2.731.141 5.209-.18 7.344.013zM221.917 6.248l1.152.069-.124-.059c-.355.009-.718.009-1.028-.01zM222.945 6.258l.673-.028c-.252-.001-.495.001-.7.013l.027.015zM246.869 6.228c.254.005.754.016 1.256.001-.331-.017-.999-.022-1.256-.001z"/><polygon points="248.214,6.187 247.633,6.166 247.549,6.182"/><path d="M281.953 6.069l1.855-.083c.323.042 2.419-.009 1.74.063 1.104-.098 3.503-.002 2.612-.144-5.435.048-12.933-.035-19.216.091l1.012-.056c-3.27.112-4.482-.124-7.109.099l.352-.115c-1.497-.032-2.865.165-4.431.044l.159.046-1-.021.167.021c-1.095.045-1.761.041-2.84.008-.077-.036.505-.016.838-.025-.495-.037-1.343.041-2.179.04-.661-.032.009-.052.098-.068-2.515.051-3.659-.07-5.44.101-.175.032.653.058-.264.073 1.658.054 3.005-.013 4.518-.059h-.421c1.2-.166.913.038 2.845-.034-.51.067-1.348.066-1.687.103 2.232.126 3.189-.096 4.662.066l-.166.005c.331.016.92-.016 1.422-.03-.164-.021-.658-.032-.992-.048.506-.015.766-.088.938-.119.571.073.756-.036 1.669.001.322.067-.762.062-1.1.099l1.093-.047c1-.004.985.074 1.482.111l.188-.109c1.072.084 5.663.061 7.848-.005-.757.009-.265.072-1.183.062.333.015 1.502-.02 1.513-.072 1.512-.046 3.426-.014 4.837.034l-.406-.052c1.184-.087 2.993.065 5.087.013h-.045c.673-.012 1.252-.138 2.487-.112-.345.062-1.012.057-.943.119zM289.321 5.949l-.68.072c.75.017 1.682-.077 1.523-.124-.5.016-1.166-.017-1.259.025.089.011.082.036.416.027zM303.346 5.937c.273-.017.203-.044.319-.064-2.971.009-6.633.038-7.816-.019-1.002-.021-1.182.088-2.439.113l-.569-.073c-.68.046-2.753-.034-2.022.086.082.011.595-.057 1.178-.035l-.094.042 1.339-.015-.426.052c1.824.074 1.279-.156 3.523-.108l-.019.104c1.505.006 2.262-.03 3.583.033 0 0 .011-.052-.241-.031-.253-.006-.578-.047-.404-.079l1.233.105c1.932-.072 5.611-.132 6.684-.047-.907-.063.443-.13 1.524-.124.492.037-.346.062-.518.093.502.011.91.038 1.417.022-.656-.057-.229-.136.948-.171-2.578-.063-4.616.128-7.2.116zM304.113 5.849c-.267.003-.384.012-.448.024l1.03-.002-.582-.022z"/></g><g fill="#678EA9"><polygon points="315.089,161.995 314.218,161.973 313.942,162.036"/><path d="M310.959 161.765l-1.498.027c.858.185-.296.131 2.04.264.818-.029 2.623-.093 2.384-.166-.588.008-1.451.078-2.325.056.375-.053 1.313-.047 1.752-.116-1.411-.057-.886.045-2.438.02l.085-.085zM309.189 161.949c.137-.032.28-.063.254-.09-.14.033-.865.072-.254.09zM308.279 161.968c-.944-.007.016-.067-.081-.078l-1.071.119 1.152-.041zM304.357 161.96l-.439.012c.152.018.275.003.439-.012zM302.431 161.975c.385.041.871.017 1.487-.003l-.06-.008c-.541-.034-.031-.12.84-.098.913-.019.829.065 1.62.01l-1.084-.068c-1.433.009-2.247.132-2.803.167zM304.357 161.96l.513-.005c-.227-.015-.38-.006-.513.005z"/><polygon points="306.328,161.97 306.817,161.952 306.698,161.917"/><path d="M299.212 161.981c.227-.116 2.302.012 2.551-.078-1.267.005-2.283-.079-2.005-.144l-1.404.036c-.471.045.125.132.858.186zM296.461 161.688l-.32.02.32-.02zM289.359 161.888l3.281-.117c-.304.037-.184.074-.931.087 1.453.016 1.641-.059 2.837-.047.361.108-2.111.008-1.422.104.842-.003 2.11-.008 2.787-.1l1.342.074-.455-.119c-.545-.034-1.098.093-1.434.011-.169-.051.375-.061.76-.072-.865.023-2.368-.093-4.129-.077-1.853.012-1.413.198-2.636.256z"/><polygon points="289.235,161.757 289.016,161.711 289.167,161.773"/><path d="M285.653 161.911l1.709-.074c.184.011.285.035.408.057l.32-.096c-.788-.107-2.091.034-3.007.053-2.423-.048.109-.058-.832-.158l1.645.035c-1.483-.12-3.347-.01-4.299.021.278.011.349.044.874.034l-.987.035c1.021.084 1.895.107 4.169.093zM288.706 161.91c-.636.008-.87 0-.927-.015.165.029.381.05.927.015zM281.085 161.751l.513-.003-.513.003zM282.055 161.878l-1.195-.012.471.051c.165-.006.753-.014.724-.039zM236.278 161.714c.106.044.546.065 1.47.057-.11.059-1.309.047-1.87.08 1.224.037-.019.068.291.124 1.362.006 1.968-.069 3.427-.054-.07.016-.044.042.146.062 1.752-.036 4.725-.091 6.438-.041 1.651.022 2.877-.005 4.691-.031 5.965.008 12.181.017 18.6.024l.907-.112c.312.056 1.528-.001 1.347.072-.352-.014-.684-.002-1.105-.001 1.373.1 3.641-.008 5.287.027-.188-.02-.456-.118.039-.135-.133.125 1.944-.003 2.426.142 1.648.036.064-.11 1.778-.09.182-.074-1.646-.036-1.956-.092.539-.06 1.554.025 1.478-.053-2.751-.036-7.86.118-12.062.159l.44-.069c-2.155.05-5.634.053-7.355-.061.406.065-3.174-.036-2.855.114-.543-.034-.707-.028-1.481-.041l-.208.047c-1.106-.001-.926-.074-2.192-.069.827.064-.088.084-.457.138l-4.427-.195c.102.021.216.045.658.073-.874-.023-.726.039-.959.061-.846.004-.757-.08-.716-.122-1.549-.025-2.24.134-3.398.08l.403.066c-1.594.017-2.94-.057-4.698-.034-.854-.092 1.448-.079 2.177-.118-.359-.02-1.116-.024-1.36-.055l-2.953.154c.894-.106-1.35-.1-1.951-.107zM241.18 161.667l.51-.036-.588.008.078.028zM236.278 161.714l-.037-.011.037.011zM246.407 161.947l-.228-.006-.291-.002.519.008zM247.725 161.645l1.349.071c-.151-.029-.273-.053-1.349-.071zM258.486 161.72l.37-.054c-.679-.002-.913.02-.37.054z"/><polygon points="239.247,161.65 237.908,161.671 237.418,161.688"/><path d="M212.096 161.996c1.184.079 2.918.031 4.374.047 2.675-.041.338-.174 2.876-.183l-.438.163c2.538-.01 6.132.024 8.285-.119.187.02.637.044-.021.067 1.69-.006.876-.232 3.133-.179-2.105.102.689.097.112.198l-.328.012 4.272-.058c.039-.042-.788-.106.481-.112-.515-.008-.307-.056-.266-.098-1.31.047-2.021.018-2.816.073l-.24-.072-1.05.051c-.776-.013.797-.055-.407-.066-.138.032-1.118.067-2.06.06l.271-.019c-.72.021-1.742-.005-1.392.086l-.854-.091.15.062c-1.979-.024-2.719-.173-5.271-.096.608.019.049.052-.278.063 1.062.043 1.313-.046 2.319-.055.15.062-1.561.136-.335.173-1.348-.073-2.536.01-3.113-.146-1.622-.009-2.228.066-3.874.03l.046-.023c-.306.103-1.338-.046-2.555.059l.868.023c-.041.042-.465.043-1.051.051l-.122-.036c-.182.074-2.035.086-2.268.107.775.013 1.733-.048 2.646-.067-.46.046-.319.108-1.094.095zM228.797 161.726l-.522.036c.213-.006.409-.017.522-.036zM204.758 161.866l-.686-.096c-1.054.051 1.202.105.179.182-.637-.044-1.667.033-2.091.034.468-.044.201-.142.011-.162-.397.028-1.292-.021-1.974-.023l.102.104c-.112.059-1.683.101-2.322.056.047-.042.563-.033.985-.035.347-.079-1.059-.042-1.3-.115-1.592.111-6.688.104-5.239.281.544.034 1.008-.009 1.597-.017-1.651-.036-.011-.094.13-.126.707.028 1.921-.027 1.646.036l-1.122.066c3.595.033 8.505.021 12.639-.005l-1.789-.004c.208-.048 1.053-.051 1.708-.074l-.877-.117c.518.009 1.01-.009.969.033.628-.05.343-.079-.034-.12 1.335-.021 1.552.025 2.58-.052l-4.416-.004-.696.158z"/><polygon points="209.618,161.803 209.082,161.861 209.898,161.832"/><path d="M208.767 162.061l.276-.062c-1.034-.019-.912.018-.276.062zM196.298 161.805l-1.335.021.869.022c-.024-.026.303-.037.466-.043zM186.929 162.11c1.854-.012 2.649-.066 4.742-.007 1.027-.077-.48-.144-.038-.214-1.038-.017-.91.113-1.985.139-.402-.066-1.578.014-2.607-.001.126.028.126.058-.112.083zM180.548 161.857c-.846-.001-1.701.051-2.372.019.094-.041.601-.057 1.11-.046-.322-.094-.936.015-1.854-.048.081.01.415.026.158.047-2.28-.022-1.282.077-4.238.023-.429.025-.851.025-.78.088-1.677-.079-.83-.079-2.85-.148.078.037.738.121.726.199-2.854-.11-2.915.016-4.735-.067.203-.004.449-.024.938-.014-.236-.109-1.528.021-2.538-.001l.097-.094c-.934.015-2.553.076-3.728.008l.267-.047c-2.387.071-5.174.038-7.213.073l-1.092-.058c-2.806.07 2.79.032.733.172-.307-.172-1.448.057-3.045-.012-.753-.069 1.613-.036.78-.114-.354.088-.851.025-1.703.051.184-.083-1.776-.012-1.253-.105l-2.99.154c-.481-.047-1.348-.039-1.984-.027 1.612.001-.444.124 1.367.163 2.631-.04 7.042-.068 10.338-.024.359-.115 2.117.001 2.64-.093l.406.104c2.122-.024-.498-.062.018-.104.934-.015 1.682.054 1.594.096 1.521.006.174-.031.949-.094l.993.126c4.747-.038 11.031-.123 16.437-.052l-.405-.078c2.443.043 4.095-.175 6.264-.007l.743-.067c-.408.038.422.118-.221.172l2.064-.021-1.225-.037c.858-.067 1.805-.025 2.091.032 1.825-.078-1.087-.136-1.493-.201-2.571.145-2.589-.143-5.06-.082-1.529.045.16.072.066.114zM183.729 162.072l.375-.021-.375.021zM142.982 161.91l-.72.005c-.245.02.145.006.72-.005zM187.04 162.027l-.005-.002-.019.002h.024z"/><polygon points="188.268,161.834 187.586,161.832 187.704,161.868"/><path d="M135.758 161.812l-.008.041.008-.041zM116.2 161.786l.42.003-.42-.003zM69.266 161.872c-1.275.025-2.974.051-3.914.117l.091-.041c-.684.02-2.895.086-1.47.16l.346-.036c1.62-.062 1.175.068 2.442.096 1.526-.02 2.399-.176 3.747-.139.594-.005.501.037.328.068 1.354.011 1.882-.108 2.815-.124.37.313 4.164-.085 6.166.114 1.271-.025 2.961.002 4.581-.06-.86.078 1.524.006 1.17.095.455-.183 4.644.081 4.935-.148l2.621.039c-.002.025-.43.025-.598.03 1.006.047 1.542-.098 2.371.007 2.026.017.346-.062 1.542-.124 2.114.027 1.519.059 2.684.152.188-.108 1.451-.056 2.479-.112-.255-.006-1.69-.027-.751-.068 2.454.018 1.963-.072 4.254-.102 1.162.121-2.289.004-.274.099-1.451.057-2.551.051-3.328.139 1.951.007 4.324-.013 6.452-.063 1.181.017-.606.058.325.068 2.106.053 3.239-.123 4.925-.07l-.352.062c1.032-.083 3.727.019 5.678-.027-.246-.031-.413-.053-.152-.073-.032.156 2.722-.081 4.649.029-.151-.1 1.721-.155 2.909-.165.417.026.328.068.323.095-1.94-.06-1.883.107-3.417.153 1.282-.051 3.391.002 4.503-.07l-.437.078c1.775.012 1.552-.176 3.406-.102l-.182.057c3.729-.008 8.113.095 11.101-.034.262-.047-1.244-.157-1.324-.193-1.784.04-2.814.123-4.173.164l.013-.09c-.31.062-1.946.098-1.04.146-1.108.046-.835-.079-2.112-.027l.877-.182-1.108.046-.332-.068c-2.051.113-2.87-.044-4.996.007l1.186.017c-.01.052-.689.047-1.198.062-.58-.072-.921-.062-2.016-.095-.938.041-1.462.135-2.733.134.273-.099-2.109-.054-2.348-.137-.271.099-2.462.035-2.639.092-.682.021-1.615.01-1.604-.043l.513-.018-.679-.003.12-.021c-.605-.003-.611.069-1.389.021.008-.026.427-.025.77-.036-1.609-.017-2.825.149-4.16.06-.263.047-2.127.051-1.721.155-.501-.037-.317-.12-1.676-.105-.777.089-1.518-.032-2.544.024l1.207-.114c-.925-.036-2.301.082-3.912.066l-.325-.068c-.601.031-1.287.104-1.866.029l.072.063c-1.099-.032-2.624-.013-3.799-.081l-1.373.119c-1.843-.126-4.317-.013-5.776.095l-1.098-.019c-.337-.01-.59-.021-.586-.034l.735-.044c-.995-.004-2.209-.072-2.766.027-1.022.03-.749-.068-1.508-.085-2.061.14-6.082-.103-6.711.11l4.059.034c-.427.025-.097.067-.69.072-1.615.01-2.444-.069-4.059-.034l.194-.135c-2.772-.138-5.285.183-7.453-.011zM89.925 161.876l-1.169-.069.125.059c.362-.011.731-.011 1.044.01zM88.881 161.865l-.682.027c.255.001.502-.001.711-.013l-.029-.014zM64.608 161.896c-.258-.006-.765-.017-1.274-.001.335.015 1.014.021 1.274.001z"/><polygon points="63.244,161.937 63.833,161.957 63.919,161.941"/><path d="M29.011 162.054l-1.882.083c-.328-.042-2.455.008-1.766-.063-1.12.098-3.554.002-2.65.144 5.513-.049 13.122.034 19.497-.091l-1.027.056c3.318-.111 4.548.124 7.213-.099l-.356.114c1.519.032 2.907-.165 4.495-.044l-.161-.047 1.014.021-.169-.021c1.11-.046 1.786-.04 2.881-.009.078.037-.513.016-.851.025.502.037 1.362-.04 2.21-.04.671.032-.008.053-.099.068 2.551-.051 3.713.07 5.521-.101.177-.031-.664-.059.267-.073-1.682-.054-3.049.014-4.584.06l.427.001c-1.217.165-.926-.038-2.886.034.518-.067 1.367-.067 1.711-.104-2.265-.126-3.235.097-4.73-.065l.169-.005c-.336-.016-.933.015-1.443.03.166.021.668.031 1.006.048-.513.015-.776.088-.952.118-.58-.072-.767.036-1.693 0-.328-.068.772-.062 1.116-.099l-1.109.046c-1.014.005-1-.074-1.503-.11l-.19.109c-1.088-.084-5.746-.061-7.962.005.768-.01.268-.072 1.2-.062-.338-.016-1.524.021-1.535.072-1.534.046-3.477.014-4.908-.034l.413.052c-1.202.088-3.038-.064-5.162-.014l.046.001c-.683.012-1.27.139-2.524.112.35-.061 1.026-.056.956-.118zM21.535 162.175l.69-.073c-.76-.016-1.707.077-1.545.124.507-.016 1.183.017 1.277-.025-.09-.011-.082-.037-.422-.026zM7.306 162.187c-.278.017-.207.044-.325.063 3.014-.009 6.73-.037 7.931.019 1.017.021 1.199-.087 2.476-.112l.577.073c.689-.047 2.793.033 2.052-.087-.083-.011-.603.057-1.195.035l.095-.041-1.358.014.432-.052c-1.851-.074-1.298.156-3.575.107l.018-.104c-1.526-.006-2.294.03-3.635-.033 0 0-.011.053.244.031.257.006.587.048.41.079l-1.25-.105c-1.961.071-5.694.132-6.781.048.92.062-.45.13-1.547.124-.5-.037.351-.062.524-.094-.508-.011-.923-.037-1.438-.021.666.058.231.136-.962.171 2.616.063 4.685-.128 7.307-.115zM6.527 162.274c.271-.004.39-.013.455-.024l-1.045.003.59.021z"/></g><g fill="#678EA9"><polygon points="319.886,165.828 319.009,165.738 318.732,165.994"/><path d="M315.73 164.908l-1.507.107c.863.74-.298.525 2.052 1.055.824-.115 2.64-.372 2.399-.662-.592.031-1.461.313-2.341.223.378-.213 1.322-.188 1.764-.465-1.42-.229-.892.18-2.453.077l.086-.335zM313.95 165.645c.138-.127.282-.254.256-.357-.142.126-.871.283-.256.357zM313.033 165.722c-.949-.027.017-.272-.081-.313l-1.078.477 1.159-.164zM309.088 165.689l-.441.045c.153.077.277.012.441-.045zM307.149 165.746c.388.165.877.067 1.497-.012l-.061-.03c-.544-.139-.031-.479.846-.39.918-.076.834.26 1.629.039l-1.09-.275c-1.442.042-2.26.533-2.821.668zM309.088 165.689l.516-.021c-.229-.057-.382-.023-.516.021z"/><polygon points="311.071,165.729 311.563,165.659 311.443,165.516"/><path d="M303.911 165.773c.228-.463 2.315.05 2.566-.311-1.274.02-2.298-.319-2.018-.574l-1.413.144c-.473.175.127.523.865.741zM301.143 164.602c-.092.039-.198.065-.321.079.154-.019.284-.042.321-.079zM293.998 165.397l3.301-.466c-.306.148-.184.294-.937.347 1.462.062 1.651-.233 2.854-.187.364.432-2.124.031-1.431.417.848-.013 2.124-.032 2.805-.397l1.35.295-.457-.475c-.549-.137-1.104.371-1.442.042-.17-.203.377-.241.764-.29-.871.096-2.383-.369-4.153-.308-1.867.05-1.424.795-2.654 1.022z"/><polygon points="293.872,164.876 293.652,164.691 293.804,164.941"/><path d="M290.27 165.494l1.719-.297c.186.041.286.14.411.227l.321-.385c-.792-.428-2.104.137-3.024.212-2.438-.193.11-.229-.837-.634.683.011.709.113 1.654.143-1.492-.481-3.368-.04-4.325.08.279.043.351.176.879.137l-.993.141c1.027.339 1.905.431 4.195.376zM293.341 165.49c-.641.032-.876 0-.934-.061.167.116.384.2.934.061zM285.673 164.852c.106.027.282.018.516-.012-.117-.018-.27-.023-.516.012zM286.648 165.359l-1.203-.045.474.202c.167-.022.758-.053.729-.157zM240.589 164.705c.108.174.55.26 1.479.227-.11.231-1.317.187-1.882.319 1.231.149-.019.272.293.497 1.371.022 1.98-.279 3.448-.218-.07.065-.044.168.146.249 1.764-.146 4.754-.363 6.478-.164 1.662.087 2.895-.022 4.721-.127 6 .121 12.26-.117 18.714.1l.912-.452c.314.227 1.538-.001 1.356.293-.354-.057-.688-.01-1.112-.004 1.381.397 3.662-.033 5.318.109-.188-.081-.458-.474.04-.543-.134.503 1.956-.009 2.44.568 1.659.144.065-.439 1.789-.359.183-.296-1.655-.144-1.967-.367.542-.24 1.562.102 1.486-.21-2.769-.147-7.909.47-12.137.638l.443-.278c-2.168.199-5.668.209-7.4-.244.408.264-3.193-.143-2.873.459-.546-.138-.712-.115-1.491-.166l-.209.19c-1.112-.005-.932-.298-2.206-.279.832.258-.088.336-.46.55-1.46-.289-3.158-.542-4.453-.779.103.084.217.179.662.29-.88-.091-.73.156-.966.245-.85.013-.761-.322-.719-.49-1.56-.103-2.255.535-3.42.321l.405.267c-1.603.064-2.959-.229-4.728-.139-.858-.365 1.457-.315 2.19-.473-.361-.076-1.123-.097-1.368-.217-.754.187-2.03.439-2.972.615.905-.424-1.353-.401-1.957-.428zM245.521 164.518c.223-.057.405-.105.512-.146-.17.022-.332.047-.591.03-.023.047.014.084.079.116zM240.589 164.705l-.036-.043c-.178.025-.126.035.036.043zM250.781 165.639l-.229-.023-.293-.01.522.033zM252.106 164.428c.345.094.821.189 1.357.285-.151-.12-.274-.214-1.357-.285zM262.935 164.728c.333-.047.142-.127.372-.214-.684-.011-.918.076-.372.214z"/><polygon points="243.577,164.449 242.229,164.531 241.735,164.603"/><path d="M216.258 165.834c1.19.317 2.937.123 4.401.188 2.691-.166.34-.695 2.894-.733l-.44.654c2.554-.038 6.17.097 8.336-.478.188.08.641.178-.021.271 1.7-.025.881-.932 3.151-.715-2.118.406.694.387.113.792l-.331.046c1.441-.042 3.348-.258 4.3-.23.039-.169-.793-.426.483-.446-.517-.033-.308-.224-.267-.392-1.317.186-2.032.071-2.833.293l-.242-.289-1.057.203c-.781-.051.802-.22-.409-.266-.139.127-1.125.268-2.073.238l.272-.076c-.724.088-1.753-.02-1.4.344l-.859-.362.151.248c-1.99-.098-2.735-.69-5.303-.381.612.074.049.208-.28.255 1.068.172 1.321-.187 2.333-.22.152.247-1.569.544-.336.692-1.356-.295-2.553.037-3.133-.581-1.632-.039-2.242.263-3.897.12l.045-.093c-.308.409-1.346-.185-2.569.234l.873.092c-.042.167-.468.173-1.058.203.069-.065.069-.065-.122-.146-.184.296-2.049.344-2.281.432.779.051 1.743-.193 2.662-.27-.465.176-.323.424-1.103.373zM233.062 164.752l-.526.143c.215-.024.411-.067.526-.143zM208.875 165.315l-.69-.386c-1.06.205 1.211.422.181.729-.642-.179-1.678.13-2.104.136.471-.175.201-.567.01-.648-.399.11-1.3-.085-1.985-.096 1.683.246-1.415.146.103.414-.113.233-1.693.404-2.337.225.048-.168.567-.133.992-.14.348-.319-1.065-.171-1.308-.462-1.603.442-6.729.412-5.272 1.123.547.137 1.014-.035 1.606-.066-1.661-.143-.011-.375.131-.503.711.114 1.933-.111 1.656.144l-1.13.267c3.617.134 8.558.083 12.717-.021l-1.8-.015c.209-.192 1.06-.205 1.719-.298l-.883-.468c.521.034 1.016-.035.975.133.632-.198.345-.318-.034-.479 1.343-.082 1.562.101 2.596-.206-2.229-.384-1.884.319-4.442-.018l-.701.635z"/><polygon points="213.765,165.058 213.226,165.295 214.048,165.178"/><path d="M212.908 166.092l.278-.252c-1.04-.069-.917.074-.278.252zM200.362 165.067l-1.343.082.874.091c-.023-.104.306-.148.469-.173zM190.936 166.291c1.865-.048 2.666-.268 4.772-.029 1.033-.307-.484-.575-.039-.854-1.045-.068-.916.451-1.997.552-.405-.265-1.588.058-2.624-.003.128.109.128.233-.112.334zM184.516 165.278c-.851-.004-1.711.202-2.387.075.095-.167.604-.229 1.117-.184-.324-.377-.941.059-1.865-.193.082.041.418.105.16.188-2.295-.089-1.291.31-4.265.094-.432.104-.856.102-.785.352-1.688-.316-.835-.314-2.868-.592.079.146.744.482.731.795-2.872-.44-2.934.062-4.766-.268.205-.016.453-.098.944-.055-.237-.438-1.537.08-2.553-.007l.097-.374c-.939.059-2.568.305-3.75.031l.268-.188c-2.401.285-5.206.153-7.257.294l-1.099-.231c-2.823.284 2.807.131.738.689-.309-.689-1.457.225-3.063-.05-.758-.274 1.623-.144.785-.456-.356.353-.856.102-1.713.203.185-.333-1.787-.045-1.261-.421l-3.009.618c-.484-.189-1.355-.157-1.996-.109 1.622.004-.447.496 1.376.65 2.647-.16 7.085-.273 10.402-.098.361-.459 2.13.005 2.656-.369l.408.418c2.135-.098-.501-.251.018-.418.939-.06 1.692.215 1.604.381 1.53.024.175-.125.955-.372l.999.503c4.775-.154 11.099-.494 16.537-.207l-.408-.314c2.459.173 4.121-.699 6.303-.025l.748-.27c-.411.153.425.472-.223.686.673-.107 1.385.013 2.078-.085l-1.232-.149c.863-.268 1.815-.103 2.104.131 1.837-.315-1.094-.543-1.502-.808-2.587.581-2.605-.569-5.091-.326-1.54.184.158.293.065.461zM187.717 166.139c.163-.024.286-.055.377-.084l-.377.084zM146.718 165.49c-.191 0-.421.004-.725.019-.245.079.148.023.725-.019zM191.048 165.957l-.005-.006-.019.006h.024z"/><polygon points="192.282,165.186 191.598,165.176 191.717,165.319"/><path d="M139.45 165.096l-.008.165c.066-.052.092-.105.008-.165zM119.771 164.995l.423.008c-.13-.024-.282-.021-.423-.008zM72.549 165.338c-1.283.102-2.993.201-3.939.469l.092-.166c-.688.081-2.913.346-1.479.642l.348-.145c1.629-.245 1.183.274 2.457.381 1.536-.077 2.415-.701 3.771-.554.598-.018.504.149.33.273 1.362.046 1.894-.433 2.833-.495.372 1.253 4.189-.341 6.204.456 1.278-.102 2.979.008 4.609-.239-.865.313 1.534.026 1.178.38.458-.729 4.672.324 4.965-.592 2.205.257.092-.062 2.637.154-.002.103-.433.103-.601.121 1.012.189 1.551-.391 2.386.028 2.038.067.348-.249 1.551-.495 2.127.107 1.528.232 2.7.61.188-.438 1.459-.226 2.494-.452-.256-.021-1.701-.107-.756-.273 2.47.07 1.976-.287 4.28-.405 1.169.482-2.303.015-.275.396-1.459.225-2.567.202-3.349.555 1.963.025 4.351-.052 6.491-.254 1.188.064-.61.228.327.271 2.119.214 3.259-.491 4.955-.278l-.354.249c1.039-.331 3.75.073 5.713-.11-.248-.125-.415-.209-.153-.292-.032.626 2.739-.325 4.678.116-.153-.396 1.731-.62 2.927-.661.42.108.33.274.325.38-1.952-.236-1.895.431-3.438.615 1.289-.206 3.412.008 4.531-.281l-.439.312c1.786.046 1.562-.704 3.427-.407l-.183.229c3.752-.031 8.163.376 11.169-.137.264-.188-1.251-.629-1.332-.776-1.795.163-2.831.495-4.199.658l.013-.357c-.312.245-1.958.391-1.047.583-1.114.183-.84-.314-2.125-.11.1-.374.869-.414.882-.726l-1.115.184-.333-.272c-2.063.453-2.887-.176-5.027.028l1.193.066c-.01.208-.694.187-1.206.247-.583-.293-.927-.253-2.028-.381-.945.164-1.472.538-2.75.535.274-.396-2.122-.215-2.362-.548-.272.395-2.478.141-2.656.367-.686.081-1.625.039-1.614-.172l.516-.067-.684-.014.121-.087c-.609-.01-.615.277-1.397.082.008-.104.429-.102.774-.144-1.619-.067-2.842.597-4.186.239-.265.186-2.14.202-1.732.622-.504-.149-.319-.481-1.686-.423-.782.353-1.527-.13-2.56.098 1.381-.371.005-.104 1.214-.457-.931-.146-2.315.328-3.936.264l-.327-.273c-.604.124-1.295.413-1.878.12l.073.251c-1.106-.129-2.64-.049-3.822-.323l-1.381.476c-1.855-.504-4.343-.051-5.812.381-.679-.021-1.7-.108-1.694-.214l.739-.173c-1.001-.018-2.223-.289-2.783.106-1.028.122-.753-.272-1.518-.337-2.074.557-6.119-.411-6.752.439.853.004 2.464.174 4.084.138-.43.103-.097.27-.694.288-1.625.038-2.459-.276-4.084-.135l.196-.541c-2.788-.553-5.317.733-7.497-.043zM93.334 165.351l-1.176-.274.126.233c.364-.039.735-.039 1.05.041zM92.285 165.31c-.242.025-.477.065-.687.11.257.005.505-.005.715-.051l-.028-.059zM67.862 165.43c-.259-.021-.77-.064-1.282-.004.337.064 1.02.086 1.282.004z"/><polygon points="66.489,165.593 67.082,165.678 67.168,165.615"/><path d="M32.045 166.064l-1.894.329c-.33-.167-2.469.035-1.776-.253-1.126.392-3.576.011-2.667.576 5.547-.194 13.203.138 19.617-.366l-1.033.226c3.338-.448 4.576.493 7.257-.396l-.358.458c1.528.128 2.925-.66 4.523-.178l-.162-.187 1.021.086-.17-.084c1.117-.184 1.797-.162 2.899-.035.078.146-.516.062-.856.102.505.148 1.371-.162 2.225-.159.674.127-.009.208-.1.271 2.567-.202 3.736.28 5.555-.402.178-.125-.667-.232.269-.291-1.692-.215-3.068.055-4.612.238l.427.001c-1.225.662-.932-.15-2.904.137.521-.27 1.376-.268 1.722-.412-2.279-.506-3.255.387-4.759-.265l.17-.019c-.338-.062-.939.061-1.452.121.167.084.672.127 1.013.191-.516.061-.781.352-.958.476-.583-.293-.771.144-1.703-.004-.33-.271.777-.248 1.123-.394l-1.116.186c-1.021.018-1.006-.296-1.513-.442-.861.207.507.146-.191.437-1.095-.336-5.782-.242-8.012.021.773-.038.27-.29 1.208-.246-.34-.062-1.534.08-1.544.288-1.543.184-3.498.054-4.938-.138l.415.21c-1.208.35-3.056-.26-5.194-.055l.046.004c-.688.045-1.278.553-2.54.447.353-.25 1.033-.229.962-.479zM24.523 166.547l.694-.291c-.765-.064-1.717.309-1.555.496.51-.062 1.19.066 1.285-.101-.09-.042-.082-.145-.424-.104zM10.207 166.593c-.279.066-.208.176-.327.257 3.032-.036 6.771-.151 7.979.075 1.023.085 1.207-.351 2.491-.452l.58.293c.694-.186 2.811.134 2.065-.348-.084-.042-.607.227-1.203.142l.096-.166-1.366.058.434-.208c-1.862-.296-1.306.624-3.597.431l.019-.418c-1.536-.023-2.309.12-3.658-.133 0 0-.011.208.246.124.259.022.591.189.413.314l-1.258-.42c-1.973.286-5.729.526-6.823.19.926.252-.453.52-1.556.496-.503-.147.353-.248.528-.373-.512-.045-.929-.149-1.447-.088.67.23.233.543-.968.685 2.632.258 4.713-.508 7.352-.459zM9.422 166.945c.272-.014.392-.051.458-.096l-1.051.01.593.086z"/></g><g fill="#678EA9"><polygon points="4.292,2.295 5.158,2.385 5.432,2.128"/><path d="M8.397 3.215l1.489-.107c-.853-.741.294-.526-2.027-1.055-.814.115-2.608.372-2.37.662.584-.031 1.442-.314 2.311-.223-.373.213-1.306.188-1.741.466 1.402.229.88-.18 2.423-.078l-.085.335zM10.156 2.478c-.136.127-.279.254-.253.358.14-.127.861-.284.253-.358zM11.062 2.401c.938.028-.016.273.08.313l1.065-.477-1.145.164zM14.959 2.434l.436-.045c-.151-.077-.273-.012-.436.045zM16.875 2.377c-.382-.165-.866-.067-1.479.011l.06.031c.537.139.031.479-.835.39-.907.076-.824-.26-1.61-.039l1.078.274c1.423-.041 2.232-.532 2.786-.667zM14.959 2.434l-.51.021c.226.057.378.023.51-.021z"/><polygon points="13,2.394 12.514,2.464 12.633,2.608"/><path d="M20.074 2.35c-.225.462-2.287-.05-2.535.31 1.259-.02 2.27.319 1.993.574l1.396-.144c.467-.174-.125-.522-.854-.74zM22.809 3.521c.091-.039.196-.065.318-.079-.153.019-.282.042-.318.079zM29.868 2.726l-3.262.466c.302-.149.182-.295.925-.347-1.444-.062-1.631.233-2.82.187-.359-.432 2.099-.032 1.414-.418-.837.013-2.098.032-2.77.397l-1.334-.295.452.475c.542.136 1.091-.372 1.424-.042.168.203-.372.242-.755.29.861-.095 2.355.37 4.104.308 1.844-.049 1.407-.794 2.622-1.021z"/><polygon points="29.991,3.247 30.209,3.432 30.059,3.182"/><path d="M33.551 2.628l-1.698.297c-.183-.041-.283-.14-.406-.227.064.11-.391.295-.318.385.783.428 2.078-.137 2.988-.212 2.408.193-.108.229.827.634-.674-.011-.7-.113-1.634-.143 1.475.482 3.327.04 4.273-.08-.276-.043-.346-.175-.869-.137l.981-.14c-1.014-.339-1.883-.431-4.144-.377zM30.517 2.633c.633-.032.865 0 .922.061-.165-.116-.379-.2-.922-.061zM38.092 3.271c-.106-.027-.279-.017-.51.012.115.018.267.023.51-.012zM37.128 2.764l1.188.045-.468-.203c-.164.022-.748.054-.72.158zM82.631 3.418c-.106-.174-.542-.26-1.461-.226.109-.232 1.301-.187 1.859-.32-1.217-.149.018-.272-.289-.497-1.354-.022-1.957.279-3.406.218.069-.065.043-.168-.145-.249-1.743.146-4.696.363-6.399.164-1.643-.088-2.86.022-4.664.127-5.928-.122-12.112.118-18.488-.1l-.902.452c-.31-.226-1.519.001-1.339-.292.35.056.68.009 1.099.003-1.364-.397-3.618.033-5.255-.109.187.081.453.473-.039.543.132-.503-1.933.009-2.411-.568-1.639-.144-.065.439-1.768.359-.181.296 1.635.144 1.943.367-.536.24-1.543-.102-1.469.21 2.735.147 7.814-.47 11.99-.638l-.438.278c2.143-.199 5.601-.209 7.312.244-.404-.264 3.154.143 2.838-.459.54.138.703.116 1.473.167l.207-.191c1.1.005.92.298 2.179.279-.822-.258.087-.335.455-.55 1.442.289 3.12.542 4.399.779-.101-.084-.214-.179-.654-.291.869.091.721-.156.954-.245.84-.013.752.322.711.49 1.541.103 2.228-.535 3.378-.321l-.401-.265c1.584-.064 2.923.229 4.67.139.848.365-1.439.315-2.164.472.356.077 1.109.097 1.352.217.745-.186 2.005-.439 2.936-.615-.89.424 1.34.401 1.937.428zM77.759 3.605c-.22.057-.401.106-.506.146.168-.023.328-.047.583-.03.024-.047-.012-.084-.077-.116zM82.631 3.418l.037.043c.175-.025.124-.035-.037-.043zM72.562 2.484l.227.023.29.01-.517-.033zM71.253 3.695c-.341-.093-.812-.189-1.341-.285.15.12.272.214 1.341.285zM60.556 3.395c-.329.047-.14.127-.367.214.674.011.906-.076.367-.214z"/><polygon points="79.68,3.674 81.011,3.592 81.499,3.52"/><path d="M106.669 2.289c-1.176-.317-2.9-.123-4.348-.188-2.659.166-.336.695-2.859.733l.435-.654c-2.522.039-6.095-.097-8.235.478-.186-.08-.633-.178.021-.271-1.68.025-.871.932-3.114.715 2.093-.407-.686-.387-.111-.792l.327-.046c-1.424.042-3.308.257-4.248.23-.039.169.783.426-.478.446.511.033.304.224.263.392 1.302-.186 2.008-.071 2.799-.293l.239.289 1.043-.203c.772.051-.792.22.405.266.137-.127 1.111-.268 2.047-.238l-.269.075c.716-.087 1.732.02 1.384-.343l.85.362-.15-.248c1.966.097 2.702.69 5.239.381-.605-.074-.049-.208.277-.255-1.056-.172-1.305.186-2.305.22-.15-.248 1.551-.544.333-.692 1.339.294 2.521-.038 3.095.581 1.612.039 2.215-.263 3.851-.121l-.045.093c.304-.409 1.33.185 2.539-.234l-.864-.092c.041-.167.462-.173 1.044-.203-.068.065-.068.065.121.146.181-.296 2.023-.344 2.254-.431-.771-.051-1.723.193-2.631.269.46-.174.32-.423 1.091-.372zM90.067 3.371l.52-.143c-.212.024-.406.067-.52.143zM113.963 2.808l.682.386c1.047-.205-1.196-.422-.178-.729.633.179 1.657-.13 2.078-.136-.465.175-.199.567-.01.649.395-.11 1.284.085 1.961.096-1.662-.246 1.398-.146-.101-.414.111-.233 1.672-.404 2.308-.225-.046.168-.56.133-.979.14-.344.319 1.052.171 1.292.462 1.583-.442 6.648-.412 5.208-1.124-.54-.136-1.001.036-1.587.066 1.642.143.01.375-.129.503-.703-.114-1.909.112-1.636-.143l1.116-.267c-3.574-.134-8.454-.083-12.564.021l1.779.014c-.207.192-1.047.205-1.698.298l.872.468c-.514-.034-1.003.035-.962-.133-.624.198-.341.318.034.48-1.327.082-1.543-.101-2.564.206 2.202.384 1.861-.32 4.389.018l.689-.636z"/><polygon points="109.132,3.065 109.665,2.828 108.853,2.945"/><path d="M109.979 2.031l-.275.252c1.028.07.906-.074.275-.252zM122.373 3.056l1.327-.082-.863-.091c.022.104-.303.148-.464.173zM131.686 1.832c-1.843.048-2.634.268-4.715.029-1.021.307.478.575.039.854 1.032.068.905-.451 1.973-.552.4.265 1.569-.058 2.592.003-.127-.109-.127-.233.111-.334zM138.028 2.845c.84.003 1.69-.203 2.358-.075-.093.166-.597.228-1.104.183.32.377.93-.059 1.842.193-.08-.041-.413-.104-.158-.187 2.267.089 1.275-.31 4.213-.094.427-.104.846-.102.775-.352 1.667.317.825.314 2.833.592-.078-.146-.734-.482-.722-.794 2.837.44 2.898-.062 4.708.268-.202.016-.447.098-.933.055.235.438 1.519-.08 2.522.007l-.096.374c.928-.058 2.538-.304 3.705-.031l-.265.188c2.373-.285 5.144-.153 7.17-.294l1.085.232c2.789-.285-2.773-.131-.729-.69.305.69 1.439-.225 3.026.05.748.274-1.604.143-.775.456.352-.353.846-.102 1.692-.203-.183.333 1.766.045 1.247.421l2.972-.618c.478.189 1.339.157 1.972.109-1.602-.004.442-.496-1.358-.65-2.616.16-7 .273-10.276.098-.357.458-2.104-.005-2.625.369l-.403-.418c-2.109.097.495.251-.018.418-.928.06-1.671-.215-1.584-.381-1.512-.024-.173.125-.943.372l-.987-.503c-4.719.155-10.965.494-16.338.207l.403.314c-2.429-.173-4.071.699-6.227.025l-.739.27c.406-.153-.419-.472.22-.686-.664.107-1.368-.013-2.052.085l1.217.15c-.853.267-1.793.102-2.078-.131-1.815.315 1.08.543 1.484.807 2.556-.581 2.574.57 5.029.327 1.522-.186-.155-.295-.063-.463zM134.865 1.984c-.161.024-.282.054-.372.084l.372-.084zM175.369 2.633c.189 0 .417-.004.717-.019.242-.079-.146-.023-.717.019zM131.575 2.166l.005.006.018-.006h-.023z"/><polygon points="130.355,2.938 131.032,2.947 130.915,2.804"/><path d="M182.55 3.027l.008-.165c-.065.052-.091.105-.008.165zM201.991 3.128l-.418-.009c.129.026.279.022.418.009zM248.645 2.785c1.268-.102 2.956-.201 3.891-.469l-.091.166c.68-.081 2.878-.346 1.461-.642l-.344.145c-1.61.245-1.168-.274-2.427-.381-1.518.078-2.386.702-3.725.554-.592.018-.499-.149-.326-.273-1.346-.046-1.871.433-2.799.495-.367-1.253-4.139.341-6.129-.456-1.263.102-2.942-.008-4.554.239.855-.313-1.515-.026-1.163-.38-.452.729-4.616-.324-4.905.592-2.178-.257-.091.061-2.605-.154.002-.103.428-.103.594-.122-1-.189-1.532.391-2.356-.028-2.014-.067-.345.249-1.533.495-2.102-.107-1.51-.232-2.667-.61-.187.438-1.442.226-2.464.452.253.021 1.68.107.747.273-2.439-.07-1.951.288-4.229.405-1.155-.483 2.274-.015.271-.395 1.442-.225 2.536-.203 3.309-.555-1.938-.026-4.298.051-6.413.254-1.174-.065.603-.228-.323-.271-2.093-.213-3.22.492-4.896.279l.35-.249c-1.026.331-3.704-.073-5.645.11.245.125.41.209.151.292.032-.626-2.705.325-4.621-.116.15.396-1.711.62-2.892.66-.415-.108-.326-.274-.321-.379 1.929.236 1.872-.431 3.396-.615-1.273.206-3.37-.008-4.477.281l.435-.312c-1.765-.045-1.543.705-3.386.407l.181-.228c-3.707.031-8.064-.376-11.034.137-.261.188 1.235.629 1.315.776 1.773-.163 2.797-.495 4.148-.658l-.013.357c.308-.245 1.935-.391 1.034-.583 1.101-.183.83.314 2.099.11-.099.374-.858.414-.871.726l1.101-.184.33.272c2.038-.453 2.852.176 4.966-.028l-1.179-.066c.011-.208.686-.187 1.191-.247.577.293.916.253 2.004.381.933-.164 1.453-.538 2.717-.535-.271.396 2.096.215 2.334.548.269-.395 2.447-.141 2.623-.368.678-.081 1.605-.039 1.595.172l-.51.068.676.013-.119.086c.602.01.607-.277 1.38-.082-.008.104-.424.102-.765.144 1.6.067 2.808-.597 4.136-.239.261-.186 2.113-.202 1.711-.622.498.149.315.481 1.666.422.771-.353 1.508.129 2.528-.098-1.364.371-.005.104-1.199.457.92.146 2.288-.328 3.888-.264l.323.273c.597-.124 1.279-.413 1.855-.12l-.072-.251c1.093.128 2.607.049 3.776.323l1.364-.476c1.832.504 4.291.051 5.741-.381.672.021 1.681.108 1.674.214l-.73.173c.989.018 2.196.289 2.749-.107 1.017-.121.745.273 1.5.337 2.048-.557 6.045.412 6.671-.439-.843-.004-2.435-.174-4.035-.138.425-.103.097-.27.686-.288 1.605-.038 2.43.276 4.034.135l-.192.541c2.756.555 5.254-.731 7.409.045zM228.109 2.772l1.161.274-.124-.233c-.359.039-.725.039-1.037-.041zM229.146 2.813c.238-.025.471-.065.678-.11-.254-.005-.499.005-.706.051l.028.059zM253.274 2.693c.256.021.76.065 1.267.004-.334-.064-1.008-.086-1.267-.004z"/><polygon points="254.631,2.53 254.045,2.445 253.96,2.508"/><path d="M288.659 2.059l1.871-.33c.325.167 2.439-.034 1.755.253 1.113-.392 3.533-.011 2.635-.576-5.48.195-13.044-.138-19.381.366l1.021-.226c-3.298.448-4.521-.494-7.17.396l.354-.458c-1.51-.128-2.89.66-4.469.178l.16.187-1.008-.086.168.084c-1.104.184-1.775.162-2.864.035-.077-.146.51-.062.846-.102-.499-.148-1.354.162-2.197.159-.667-.127.009-.208.099-.271-2.536.202-3.691-.28-5.488.402-.176.125.66.232-.266.291 1.673.215 3.031-.054 4.557-.238l-.424-.002c1.21-.662.92.15 2.868-.136-.514.269-1.358.267-1.7.412 2.251.506 3.216-.387 4.702.265l-.168.019c.333.062.928-.061 1.434-.121-.165-.084-.664-.127-1-.191.51-.061.771-.352.946-.476.576.292.762-.144 1.683.003.326.271-.768.249-1.108.394l1.103-.186c1.008-.017.993.296 1.494.443.851-.207-.501-.146.189-.437 1.081.336 5.712.243 7.915-.02-.764.038-.267.29-1.193.246.337.062 1.516-.08 1.526-.288 1.524-.184 3.455-.054 4.878.137l-.41-.209c1.194-.35 3.02.26 5.131.055l-.045-.004c.679-.045 1.263-.552 2.509-.447-.351.25-1.023.229-.953.479zM296.09 1.576l-.686.291c.756.064 1.696-.308 1.536-.496-.504.062-1.176-.066-1.27.101.09.041.083.145.42.104zM310.233 1.53c.276-.066.206-.176.323-.257-2.996.036-6.689.151-7.884-.075-1.011-.085-1.191.351-2.461.452l-.573-.293c-.686.186-2.776-.134-2.04.348.083.042.6-.227 1.188-.142l-.095.166 1.35-.057-.429.208c1.84.296 1.29-.624 3.553-.431l-.018.418c1.518.024 2.28-.12 3.613.133 0 0 .011-.208-.243-.124-.256-.022-.584-.19-.407-.314l1.242.419c1.949-.286 5.661-.526 6.741-.19-.915-.252.447-.52 1.537-.496.497.147-.349.248-.521.373.505.045.917.15 1.429.088-.662-.23-.23-.543.956-.685-2.598-.258-4.653.508-7.261.459zM311.009 1.178c-.27.014-.388.05-.452.096l1.039-.01-.587-.086z"/></g></svg>